<svg width="595" height="842" viewBox="0 0 595 842" fill="none" xmlns="http://www.w3.org/2000/svg">
<g clip-path="url(#clip0_34_77)">
<rect width="595" height="842" fill="#FEF6FB"/>
<path d="M188.19 58.56H177.87L175.326 66H168.75L180.846 32.16H185.694L197.79 66H190.878L188.19 58.56ZM179.55 53.28H186.75L184.254 45.792L183.246 40.512H183.006L181.998 45.84L179.55 53.28ZM198.341 42H201.653V40.656C201.653 37.616 202.293 35.424 203.573 34.08C204.853 32.704 206.709 32.016 209.141 32.016C211.701 32.016 213.829 32.32 215.525 32.928L214.325 37.92C213.589 37.664 212.933 37.504 212.357 37.44C211.813 37.344 211.237 37.296 210.629 37.296C209.989 37.296 209.477 37.392 209.093 37.584C208.741 37.776 208.469 38.08 208.277 38.496C208.117 38.88 208.005 39.376 207.941 39.984C207.909 40.56 207.893 41.232 207.893 42H213.173V47.28H207.893V66H201.653V47.28H198.341V42ZM213.762 42H217.074V40.656C217.074 37.616 217.714 35.424 218.994 34.08C220.274 32.704 222.13 32.016 224.562 32.016C227.122 32.016 229.25 32.32 230.946 32.928L229.746 37.92C229.01 37.664 228.354 37.504 227.778 37.44C227.234 37.344 226.658 37.296 226.05 37.296C225.41 37.296 224.898 37.392 224.514 37.584C224.162 37.776 223.89 38.08 223.698 38.496C223.538 38.88 223.426 39.376 223.362 39.984C223.33 40.56 223.314 41.232 223.314 42H228.594V47.28H223.314V66H217.074V47.28H213.762V42ZM250.358 63.936C249.398 64.704 248.086 65.36 246.422 65.904C244.79 66.416 243.046 66.672 241.19 66.672C237.318 66.672 234.486 65.552 232.694 63.312C230.902 61.04 230.006 57.936 230.006 54C230.006 49.776 231.014 46.608 233.03 44.496C235.046 42.384 237.878 41.328 241.526 41.328C242.742 41.328 243.926 41.488 245.078 41.808C246.23 42.128 247.254 42.656 248.15 43.392C249.046 44.128 249.766 45.12 250.31 46.368C250.854 47.616 251.126 49.168 251.126 51.024C251.126 51.696 251.078 52.416 250.982 53.184C250.918 53.952 250.806 54.752 250.646 55.584H236.246C236.342 57.6 236.854 59.12 237.782 60.144C238.742 61.168 240.278 61.68 242.39 61.68C243.702 61.68 244.87 61.488 245.894 61.104C246.95 60.688 247.75 60.272 248.294 59.856L250.358 63.936ZM241.43 46.32C239.798 46.32 238.582 46.816 237.782 47.808C237.014 48.768 236.55 50.064 236.39 51.696H245.318C245.446 49.968 245.174 48.64 244.502 47.712C243.862 46.784 242.838 46.32 241.43 46.32ZM272.291 64.512C271.331 65.216 270.163 65.744 268.787 66.096C267.443 66.48 266.051 66.672 264.611 66.672C262.691 66.672 261.059 66.368 259.715 65.76C258.403 65.152 257.331 64.304 256.499 63.216C255.667 62.096 255.059 60.752 254.675 59.184C254.323 57.616 254.146 55.888 254.146 54C254.146 49.936 255.059 46.816 256.883 44.64C258.707 42.432 261.363 41.328 264.851 41.328C266.611 41.328 268.019 41.472 269.075 41.76C270.163 42.048 271.139 42.416 272.003 42.864L270.515 47.952C269.779 47.6 269.043 47.328 268.307 47.136C267.603 46.944 266.787 46.848 265.859 46.848C264.131 46.848 262.819 47.424 261.923 48.576C261.027 49.696 260.579 51.504 260.579 54C260.579 55.024 260.691 55.968 260.915 56.832C261.139 57.696 261.475 58.448 261.923 59.088C262.371 59.728 262.947 60.24 263.651 60.624C264.387 60.976 265.235 61.152 266.195 61.152C267.251 61.152 268.147 61.024 268.883 60.768C269.619 60.48 270.275 60.144 270.851 59.76L272.291 64.512ZM273.568 42H276.88V37.488L283.12 35.712V42H288.976V47.28H283.12V56.496C283.12 58.16 283.28 59.36 283.6 60.096C283.952 60.8 284.592 61.152 285.52 61.152C286.16 61.152 286.704 61.088 287.152 60.96C287.632 60.832 288.16 60.64 288.736 60.384L289.84 65.184C288.976 65.6 287.968 65.952 286.816 66.24C285.664 66.528 284.496 66.672 283.312 66.672C281.104 66.672 279.472 66.112 278.416 64.992C277.392 63.84 276.88 61.968 276.88 59.376V47.28H273.568V42ZM302.734 59.376C302.734 58.736 302.463 58.224 301.919 57.84C301.375 57.456 300.703 57.104 299.903 56.784C299.103 56.464 298.223 56.144 297.263 55.824C296.303 55.472 295.423 55.008 294.623 54.432C293.823 53.824 293.151 53.072 292.607 52.176C292.063 51.248 291.791 50.064 291.791 48.624C291.791 46.256 292.495 44.448 293.903 43.2C295.311 41.952 297.343 41.328 299.999 41.328C301.823 41.328 303.47 41.52 304.943 41.904C306.415 42.288 307.567 42.72 308.399 43.2L307.007 47.712C306.271 47.424 305.343 47.12 304.223 46.8C303.103 46.48 301.967 46.32 300.815 46.32C298.959 46.32 298.031 47.04 298.031 48.48C298.031 49.056 298.303 49.52 298.847 49.872C299.391 50.224 300.063 50.56 300.863 50.88C301.663 51.168 302.543 51.488 303.503 51.84C304.463 52.192 305.343 52.656 306.143 53.232C306.943 53.776 307.615 54.496 308.159 55.392C308.703 56.288 308.975 57.44 308.975 58.848C308.975 61.28 308.191 63.2 306.623 64.608C305.087 65.984 302.767 66.672 299.663 66.672C297.967 66.672 296.367 66.448 294.863 66C293.391 65.584 292.191 65.088 291.263 64.512L292.991 59.856C293.727 60.272 294.703 60.688 295.919 61.104C297.135 61.488 298.383 61.68 299.663 61.68C300.591 61.68 301.327 61.504 301.871 61.152C302.447 60.8 302.734 60.208 302.734 59.376ZM324.037 54C324.037 49.936 325.029 46.816 327.013 44.64C328.997 42.432 331.781 41.328 335.365 41.328C337.285 41.328 338.949 41.632 340.357 42.24C341.765 42.848 342.933 43.712 343.861 44.832C344.789 45.92 345.477 47.248 345.925 48.816C346.405 50.384 346.645 52.112 346.645 54C346.645 58.064 345.653 61.2 343.669 63.408C341.717 65.584 338.949 66.672 335.365 66.672C333.445 66.672 331.781 66.368 330.373 65.76C328.965 65.152 327.781 64.304 326.821 63.216C325.893 62.096 325.189 60.752 324.709 59.184C324.261 57.616 324.037 55.888 324.037 54ZM330.469 54C330.469 55.056 330.565 56.032 330.757 56.928C330.949 57.824 331.237 58.608 331.621 59.28C332.005 59.952 332.501 60.48 333.109 60.864C333.749 61.216 334.501 61.392 335.365 61.392C336.997 61.392 338.213 60.8 339.013 59.616C339.813 58.432 340.213 56.56 340.213 54C340.213 51.792 339.845 50.016 339.109 48.672C338.373 47.296 337.125 46.608 335.365 46.608C333.829 46.608 332.629 47.184 331.765 48.336C330.901 49.488 330.469 51.376 330.469 54ZM348.2 42H351.512V40.656C351.512 37.616 352.152 35.424 353.432 34.08C354.712 32.704 356.568 32.016 359 32.016C361.56 32.016 363.688 32.32 365.384 32.928L364.184 37.92C363.448 37.664 362.792 37.504 362.216 37.44C361.672 37.344 361.096 37.296 360.488 37.296C359.848 37.296 359.336 37.392 358.952 37.584C358.6 37.776 358.328 38.08 358.136 38.496C357.976 38.88 357.864 39.376 357.8 39.984C357.768 40.56 357.752 41.232 357.752 42H363.032V47.28H357.752V66H351.512V47.28H348.2V42ZM387.906 59.376C387.906 58.736 387.634 58.224 387.09 57.84C386.546 57.456 385.874 57.104 385.074 56.784C384.274 56.464 383.394 56.144 382.434 55.824C381.474 55.472 380.594 55.008 379.794 54.432C378.994 53.824 378.322 53.072 377.778 52.176C377.234 51.248 376.962 50.064 376.962 48.624C376.962 46.256 377.666 44.448 379.074 43.2C380.482 41.952 382.514 41.328 385.17 41.328C386.994 41.328 388.642 41.52 390.114 41.904C391.586 42.288 392.738 42.72 393.57 43.2L392.178 47.712C391.442 47.424 390.514 47.12 389.394 46.8C388.274 46.48 387.138 46.32 385.986 46.32C384.13 46.32 383.202 47.04 383.202 48.48C383.202 49.056 383.474 49.52 384.018 49.872C384.562 50.224 385.234 50.56 386.034 50.88C386.834 51.168 387.714 51.488 388.674 51.84C389.634 52.192 390.514 52.656 391.314 53.232C392.114 53.776 392.786 54.496 393.33 55.392C393.874 56.288 394.146 57.44 394.146 58.848C394.146 61.28 393.362 63.2 391.794 64.608C390.258 65.984 387.938 66.672 384.834 66.672C383.138 66.672 381.538 66.448 380.034 66C378.562 65.584 377.362 65.088 376.434 64.512L378.162 59.856C378.898 60.272 379.874 60.688 381.09 61.104C382.306 61.488 383.554 61.68 384.834 61.68C385.762 61.68 386.498 61.504 387.042 61.152C387.618 60.8 387.906 60.208 387.906 59.376ZM395.724 42H399.036V37.488L405.276 35.712V42H411.132V47.28H405.276V56.496C405.276 58.16 405.436 59.36 405.756 60.096C406.108 60.8 406.748 61.152 407.676 61.152C408.316 61.152 408.86 61.088 409.308 60.96C409.788 60.832 410.316 60.64 410.892 60.384L411.996 65.184C411.132 65.6 410.124 65.952 408.972 66.24C407.82 66.528 406.652 66.672 405.468 66.672C403.26 66.672 401.628 66.112 400.572 64.992C399.548 63.84 399.036 61.968 399.036 59.376V47.28H395.724V42ZM428.203 47.856C427.211 47.504 426.315 47.328 425.515 47.328C424.395 47.328 423.451 47.632 422.683 48.24C421.947 48.816 421.451 49.568 421.195 50.496V66H414.955V42H419.803L420.523 45.168H420.715C421.259 43.984 421.995 43.072 422.923 42.432C423.851 41.792 424.939 41.472 426.187 41.472C427.019 41.472 427.963 41.648 429.019 42L428.203 47.856ZM450.983 63.936C450.023 64.704 448.711 65.36 447.047 65.904C445.415 66.416 443.671 66.672 441.815 66.672C437.943 66.672 435.111 65.552 433.319 63.312C431.527 61.04 430.631 57.936 430.631 54C430.631 49.776 431.639 46.608 433.655 44.496C435.671 42.384 438.503 41.328 442.151 41.328C443.367 41.328 444.551 41.488 445.703 41.808C446.855 42.128 447.879 42.656 448.775 43.392C449.671 44.128 450.391 45.12 450.935 46.368C451.479 47.616 451.751 49.168 451.751 51.024C451.751 51.696 451.703 52.416 451.607 53.184C451.543 53.952 451.431 54.752 451.271 55.584H436.871C436.967 57.6 437.479 59.12 438.407 60.144C439.367 61.168 440.903 61.68 443.015 61.68C444.327 61.68 445.495 61.488 446.519 61.104C447.575 60.688 448.375 60.272 448.919 59.856L450.983 63.936ZM442.055 46.32C440.423 46.32 439.207 46.816 438.407 47.808C437.639 48.768 437.175 50.064 437.015 51.696H445.943C446.071 49.968 445.799 48.64 445.127 47.712C444.487 46.784 443.463 46.32 442.055 46.32ZM466.094 59.376C466.094 58.736 465.822 58.224 465.278 57.84C464.734 57.456 464.062 57.104 463.262 56.784C462.462 56.464 461.582 56.144 460.622 55.824C459.662 55.472 458.782 55.008 457.982 54.432C457.182 53.824 456.51 53.072 455.966 52.176C455.422 51.248 455.15 50.064 455.15 48.624C455.15 46.256 455.854 44.448 457.262 43.2C458.67 41.952 460.702 41.328 463.358 41.328C465.182 41.328 466.83 41.52 468.302 41.904C469.774 42.288 470.926 42.72 471.758 43.2L470.366 47.712C469.63 47.424 468.702 47.12 467.582 46.8C466.462 46.48 465.326 46.32 464.174 46.32C462.318 46.32 461.39 47.04 461.39 48.48C461.39 49.056 461.662 49.52 462.206 49.872C462.75 50.224 463.422 50.56 464.222 50.88C465.022 51.168 465.902 51.488 466.862 51.84C467.822 52.192 468.702 52.656 469.502 53.232C470.302 53.776 470.974 54.496 471.518 55.392C472.062 56.288 472.334 57.44 472.334 58.848C472.334 61.28 471.55 63.2 469.982 64.608C468.446 65.984 466.126 66.672 463.022 66.672C461.326 66.672 459.726 66.448 458.222 66C456.75 65.584 455.55 65.088 454.622 64.512L456.35 59.856C457.086 60.272 458.062 60.688 459.278 61.104C460.494 61.488 461.742 61.68 463.022 61.68C463.95 61.68 464.686 61.504 465.23 61.152C465.806 60.8 466.094 60.208 466.094 59.376ZM486.344 59.376C486.344 58.736 486.072 58.224 485.528 57.84C484.984 57.456 484.312 57.104 483.512 56.784C482.712 56.464 481.832 56.144 480.872 55.824C479.912 55.472 479.032 55.008 478.232 54.432C477.432 53.824 476.76 53.072 476.216 52.176C475.672 51.248 475.4 50.064 475.4 48.624C475.4 46.256 476.104 44.448 477.512 43.2C478.92 41.952 480.952 41.328 483.608 41.328C485.432 41.328 487.08 41.52 488.552 41.904C490.024 42.288 491.176 42.72 492.008 43.2L490.616 47.712C489.88 47.424 488.952 47.12 487.832 46.8C486.712 46.48 485.576 46.32 484.424 46.32C482.568 46.32 481.64 47.04 481.64 48.48C481.64 49.056 481.912 49.52 482.456 49.872C483 50.224 483.672 50.56 484.472 50.88C485.272 51.168 486.152 51.488 487.112 51.84C488.072 52.192 488.952 52.656 489.752 53.232C490.552 53.776 491.224 54.496 491.768 55.392C492.312 56.288 492.584 57.44 492.584 58.848C492.584 61.28 491.8 63.2 490.232 64.608C488.696 65.984 486.376 66.672 483.272 66.672C481.576 66.672 479.976 66.448 478.472 66C477 65.584 475.8 65.088 474.872 64.512L476.6 59.856C477.336 60.272 478.312 60.688 479.528 61.104C480.744 61.488 481.992 61.68 483.272 61.68C484.2 61.68 484.936 61.504 485.48 61.152C486.056 60.8 486.344 60.208 486.344 59.376ZM507.646 54C507.646 49.936 508.639 46.816 510.623 44.64C512.607 42.432 515.391 41.328 518.975 41.328C520.895 41.328 522.559 41.632 523.967 42.24C525.375 42.848 526.543 43.712 527.471 44.832C528.399 45.92 529.087 47.248 529.535 48.816C530.015 50.384 530.255 52.112 530.255 54C530.255 58.064 529.263 61.2 527.279 63.408C525.327 65.584 522.559 66.672 518.975 66.672C517.055 66.672 515.391 66.368 513.983 65.76C512.575 65.152 511.391 64.304 510.431 63.216C509.503 62.096 508.799 60.752 508.319 59.184C507.871 57.616 507.646 55.888 507.646 54ZM514.079 54C514.079 55.056 514.175 56.032 514.367 56.928C514.559 57.824 514.847 58.608 515.231 59.28C515.615 59.952 516.111 60.48 516.719 60.864C517.359 61.216 518.111 61.392 518.975 61.392C520.607 61.392 521.823 60.8 522.623 59.616C523.423 58.432 523.823 56.56 523.823 54C523.823 51.792 523.455 50.016 522.719 48.672C521.983 47.296 520.735 46.608 518.975 46.608C517.439 46.608 516.239 47.184 515.375 48.336C514.511 49.488 514.079 51.376 514.079 54ZM549.268 66V52.368C549.268 50.416 548.98 49.008 548.404 48.144C547.86 47.28 546.916 46.848 545.572 46.848C544.388 46.848 543.38 47.2 542.548 47.904C541.748 48.576 541.172 49.424 540.82 50.448V66H534.58V42H539.524L540.244 45.168H540.436C541.172 44.144 542.148 43.248 543.364 42.48C544.58 41.712 546.148 41.328 548.068 41.328C549.252 41.328 550.308 41.488 551.236 41.808C552.164 42.128 552.948 42.656 553.588 43.392C554.228 44.128 554.708 45.136 555.028 46.416C555.348 47.664 555.508 49.216 555.508 51.072V66H549.268ZM347.584 104H350.896V99.488L357.136 97.712V104H362.992V109.28H357.136V118.496C357.136 120.16 357.296 121.36 357.616 122.096C357.968 122.8 358.608 123.152 359.536 123.152C360.176 123.152 360.72 123.088 361.168 122.96C361.648 122.832 362.176 122.64 362.752 122.384L363.856 127.184C362.992 127.6 361.984 127.952 360.832 128.24C359.68 128.528 358.512 128.672 357.328 128.672C355.12 128.672 353.488 128.112 352.432 126.992C351.408 125.84 350.896 123.968 350.896 121.376V109.28H347.584V104ZM385.78 125.936C384.82 126.704 383.508 127.36 381.844 127.904C380.212 128.416 378.468 128.672 376.612 128.672C372.74 128.672 369.908 127.552 368.116 125.312C366.324 123.04 365.428 119.936 365.428 116C365.428 111.776 366.436 108.608 368.452 106.496C370.468 104.384 373.3 103.328 376.948 103.328C378.164 103.328 379.348 103.488 380.5 103.808C381.652 104.128 382.676 104.656 383.572 105.392C384.468 106.128 385.188 107.12 385.732 108.368C386.276 109.616 386.548 111.168 386.548 113.024C386.548 113.696 386.5 114.416 386.404 115.184C386.34 115.952 386.228 116.752 386.068 117.584H371.668C371.764 119.6 372.276 121.12 373.204 122.144C374.164 123.168 375.7 123.68 377.812 123.68C379.124 123.68 380.292 123.488 381.316 123.104C382.372 122.688 383.172 122.272 383.716 121.856L385.78 125.936ZM376.852 108.32C375.22 108.32 374.004 108.816 373.204 109.808C372.436 110.768 371.972 112.064 371.812 113.696H380.74C380.868 111.968 380.596 110.64 379.924 109.712C379.284 108.784 378.26 108.32 376.852 108.32ZM409.92 125.936C408.96 126.704 407.648 127.36 405.984 127.904C404.352 128.416 402.608 128.672 400.752 128.672C396.88 128.672 394.048 127.552 392.256 125.312C390.464 123.04 389.568 119.936 389.568 116C389.568 111.776 390.576 108.608 392.592 106.496C394.608 104.384 397.44 103.328 401.088 103.328C402.304 103.328 403.488 103.488 404.64 103.808C405.792 104.128 406.816 104.656 407.712 105.392C408.608 106.128 409.328 107.12 409.872 108.368C410.416 109.616 410.688 111.168 410.688 113.024C410.688 113.696 410.64 114.416 410.544 115.184C410.48 115.952 410.368 116.752 410.208 117.584H395.808C395.904 119.6 396.416 121.12 397.344 122.144C398.304 123.168 399.84 123.68 401.952 123.68C403.264 123.68 404.432 123.488 405.456 123.104C406.512 122.688 407.312 122.272 407.856 121.856L409.92 125.936ZM400.992 108.32C399.36 108.32 398.144 108.816 397.344 109.808C396.576 110.768 396.112 112.064 395.952 113.696H404.88C405.008 111.968 404.736 110.64 404.064 109.712C403.424 108.784 402.4 108.32 400.992 108.32ZM429.783 128V114.368C429.783 112.416 429.495 111.008 428.919 110.144C428.375 109.28 427.431 108.848 426.087 108.848C424.903 108.848 423.895 109.2 423.063 109.904C422.263 110.576 421.687 111.424 421.335 112.448V128H415.095V104H420.039L420.759 107.168H420.951C421.687 106.144 422.663 105.248 423.879 104.48C425.095 103.712 426.663 103.328 428.583 103.328C429.767 103.328 430.823 103.488 431.751 103.808C432.679 104.128 433.463 104.656 434.103 105.392C434.743 106.128 435.223 107.136 435.543 108.416C435.863 109.664 436.023 111.216 436.023 113.072V128H429.783ZM441.108 105.392C442.388 104.816 443.908 104.368 445.668 104.048C447.428 103.696 449.268 103.52 451.188 103.52C452.852 103.52 454.244 103.728 455.364 104.144C456.484 104.528 457.364 105.088 458.004 105.824C458.676 106.56 459.14 107.44 459.396 108.464C459.684 109.488 459.828 110.64 459.828 111.92C459.828 113.328 459.78 114.752 459.684 116.192C459.588 117.6 459.524 118.992 459.492 120.368C459.492 121.744 459.54 123.088 459.636 124.4C459.732 125.68 459.972 126.896 460.356 128.048H455.268L454.26 124.736H454.02C453.38 125.728 452.484 126.592 451.332 127.328C450.212 128.032 448.756 128.384 446.964 128.384C445.844 128.384 444.836 128.224 443.94 127.904C443.044 127.552 442.276 127.072 441.636 126.464C440.996 125.824 440.5 125.088 440.148 124.256C439.796 123.392 439.62 122.432 439.62 121.376C439.62 119.904 439.94 118.672 440.58 117.68C441.252 116.656 442.196 115.84 443.412 115.232C444.66 114.592 446.132 114.16 447.828 113.936C449.556 113.68 451.476 113.6 453.588 113.696C453.812 111.904 453.684 110.624 453.204 109.856C452.724 109.056 451.652 108.656 449.988 108.656C448.74 108.656 447.412 108.784 446.004 109.04C444.628 109.296 443.492 109.632 442.596 110.048L441.108 105.392ZM449.028 123.248C450.276 123.248 451.268 122.976 452.004 122.432C452.74 121.856 453.284 121.248 453.636 120.608V117.488C452.644 117.392 451.684 117.376 450.756 117.44C449.86 117.504 449.06 117.648 448.356 117.872C447.652 118.096 447.092 118.416 446.676 118.832C446.26 119.248 446.052 119.776 446.052 120.416C446.052 121.312 446.308 122.016 446.82 122.528C447.364 123.008 448.1 123.248 449.028 123.248ZM485.368 128C485.368 131.488 484.424 134.048 482.536 135.68C480.648 137.344 478.008 138.176 474.616 138.176C472.312 138.176 470.488 138.016 469.144 137.696C467.832 137.376 466.84 137.04 466.168 136.688L467.464 131.744C468.2 132.032 469.048 132.32 470.008 132.608C471 132.896 472.216 133.04 473.656 133.04C475.832 133.04 477.304 132.56 478.072 131.6C478.872 130.672 479.272 129.36 479.272 127.664V126.128H479.08C477.96 127.632 475.976 128.384 473.128 128.384C470.024 128.384 467.704 127.424 466.168 125.504C464.664 123.584 463.912 120.576 463.912 116.48C463.912 112.192 464.936 108.944 466.984 106.736C469.032 104.528 472.008 103.424 475.912 103.424C477.96 103.424 479.784 103.568 481.384 103.856C483.016 104.144 484.344 104.48 485.368 104.864V128ZM474.808 123.392C476.024 123.392 476.952 123.12 477.592 122.576C478.264 122.032 478.776 121.216 479.128 120.128V109.328C478.136 108.912 476.904 108.704 475.432 108.704C473.832 108.704 472.584 109.312 471.688 110.528C470.792 111.712 470.344 113.616 470.344 116.24C470.344 118.576 470.728 120.352 471.496 121.568C472.264 122.784 473.368 123.392 474.808 123.392ZM509.999 125.936C509.039 126.704 507.727 127.36 506.063 127.904C504.431 128.416 502.687 128.672 500.831 128.672C496.959 128.672 494.127 127.552 492.335 125.312C490.543 123.04 489.646 119.936 489.646 116C489.646 111.776 490.655 108.608 492.671 106.496C494.687 104.384 497.519 103.328 501.167 103.328C502.383 103.328 503.567 103.488 504.719 103.808C505.871 104.128 506.895 104.656 507.791 105.392C508.687 106.128 509.407 107.12 509.951 108.368C510.495 109.616 510.767 111.168 510.767 113.024C510.767 113.696 510.719 114.416 510.623 115.184C510.559 115.952 510.447 116.752 510.287 117.584H495.887C495.983 119.6 496.495 121.12 497.423 122.144C498.383 123.168 499.919 123.68 502.031 123.68C503.343 123.68 504.511 123.488 505.535 123.104C506.591 122.688 507.391 122.272 507.935 121.856L509.999 125.936ZM501.071 108.32C499.439 108.32 498.223 108.816 497.423 109.808C496.655 110.768 496.191 112.064 496.031 113.696H504.959C505.087 111.968 504.815 110.64 504.143 109.712C503.503 108.784 502.479 108.32 501.071 108.32ZM528.422 109.856C527.43 109.504 526.534 109.328 525.734 109.328C524.614 109.328 523.67 109.632 522.902 110.24C522.166 110.816 521.67 111.568 521.414 112.496V128H515.174V104H520.022L520.742 107.168H520.934C521.478 105.984 522.214 105.072 523.142 104.432C524.07 103.792 525.158 103.472 526.406 103.472C527.238 103.472 528.182 103.648 529.238 104L528.422 109.856ZM541.938 121.376C541.938 120.736 541.666 120.224 541.122 119.84C540.578 119.456 539.906 119.104 539.106 118.784C538.306 118.464 537.426 118.144 536.466 117.824C535.506 117.472 534.626 117.008 533.826 116.432C533.026 115.824 532.354 115.072 531.81 114.176C531.266 113.248 530.994 112.064 530.994 110.624C530.994 108.256 531.698 106.448 533.106 105.2C534.514 103.952 536.546 103.328 539.202 103.328C541.026 103.328 542.674 103.52 544.146 103.904C545.618 104.288 546.77 104.72 547.602 105.2L546.21 109.712C545.474 109.424 544.546 109.12 543.426 108.8C542.306 108.48 541.17 108.32 540.018 108.32C538.162 108.32 537.234 109.04 537.234 110.48C537.234 111.056 537.506 111.52 538.05 111.872C538.594 112.224 539.266 112.56 540.066 112.88C540.866 113.168 541.746 113.488 542.706 113.84C543.666 114.192 544.546 114.656 545.346 115.232C546.146 115.776 546.818 116.496 547.362 117.392C547.906 118.288 548.178 119.44 548.178 120.848C548.178 123.28 547.394 125.2 545.826 126.608C544.29 127.984 541.97 128.672 538.866 128.672C537.17 128.672 535.57 128.448 534.066 128C532.594 127.584 531.394 127.088 530.466 126.512L532.194 121.856C532.93 122.272 533.906 122.688 535.122 123.104C536.338 123.488 537.586 123.68 538.866 123.68C539.794 123.68 540.53 123.504 541.074 123.152C541.65 122.8 541.938 122.208 541.938 121.376ZM551.532 124.832C551.532 123.712 551.884 122.832 552.588 122.192C553.292 121.52 554.22 121.184 555.372 121.184C556.588 121.184 557.548 121.52 558.252 122.192C558.956 122.832 559.308 123.712 559.308 124.832C559.308 125.952 558.956 126.848 558.252 127.52C557.548 128.192 556.588 128.528 555.372 128.528C554.22 128.528 553.292 128.192 552.588 127.52C551.884 126.848 551.532 125.952 551.532 124.832Z" fill="#667085"/>
<path d="M92.208 264.184C93.0187 263.693 93.9573 263.331 95.024 263.096C96.112 262.861 97.2427 262.744 98.416 262.744C99.5253 262.744 100.411 262.893 101.072 263.192C101.755 263.491 102.267 263.885 102.608 264.376C102.971 264.845 103.205 265.368 103.312 265.944C103.44 266.52 103.504 267.096 103.504 267.672C103.504 268.952 103.472 270.2 103.408 271.416C103.344 272.632 103.312 273.784 103.312 274.872C103.312 275.661 103.344 276.408 103.408 277.112C103.472 277.816 103.589 278.467 103.76 279.064H101.872L101.2 276.824H101.04C100.848 277.123 100.603 277.421 100.304 277.72C100.027 277.997 99.6853 278.253 99.28 278.488C98.8747 278.701 98.4053 278.883 97.872 279.032C97.3387 279.181 96.7307 279.256 96.048 279.256C95.3653 279.256 94.7253 279.149 94.128 278.936C93.552 278.723 93.0507 278.424 92.624 278.04C92.1973 277.635 91.856 277.155 91.6 276.6C91.3653 276.045 91.248 275.416 91.248 274.712C91.248 273.773 91.44 272.995 91.824 272.376C92.208 271.736 92.7413 271.235 93.424 270.872C94.128 270.488 94.96 270.221 95.92 270.072C96.9013 269.901 97.9787 269.816 99.152 269.816C99.4507 269.816 99.7387 269.816 100.016 269.816C100.315 269.816 100.613 269.837 100.912 269.88C100.976 269.24 101.008 268.664 101.008 268.152C101.008 266.979 100.773 266.157 100.304 265.688C99.8347 265.219 98.9813 264.984 97.744 264.984C97.3813 264.984 96.9867 265.016 96.56 265.08C96.1547 265.123 95.728 265.197 95.28 265.304C94.8533 265.389 94.4373 265.507 94.032 265.656C93.648 265.784 93.3067 265.933 93.008 266.104L92.208 264.184ZM96.752 277.016C97.3493 277.016 97.8827 276.941 98.352 276.792C98.8213 276.621 99.2267 276.419 99.568 276.184C99.9093 275.928 100.187 275.651 100.4 275.352C100.635 275.053 100.805 274.765 100.912 274.488V271.832C100.613 271.811 100.304 271.8 99.984 271.8C99.6853 271.779 99.3867 271.768 99.088 271.768C98.4267 271.768 97.776 271.811 97.136 271.896C96.5173 271.96 95.9627 272.099 95.472 272.312C95.0027 272.504 94.6187 272.781 94.32 273.144C94.0427 273.485 93.904 273.923 93.904 274.456C93.904 275.203 94.1707 275.821 94.704 276.312C95.2373 276.781 95.92 277.016 96.752 277.016ZM118.611 279V269.88C118.611 268.216 118.366 266.968 117.875 266.136C117.406 265.283 116.531 264.856 115.251 264.856C114.12 264.856 113.182 265.165 112.435 265.784C111.71 266.381 111.198 267.139 110.899 268.056V279H108.339V263H110.131L110.611 264.952H110.739C111.251 264.269 111.934 263.715 112.787 263.288C113.662 262.84 114.696 262.616 115.891 262.616C116.766 262.616 117.534 262.723 118.195 262.936C118.856 263.128 119.4 263.48 119.827 263.992C120.275 264.504 120.606 265.197 120.819 266.072C121.054 266.925 121.171 268.013 121.171 269.336V279H118.611ZM130.031 270.808L124.655 263H127.791L130.831 267.416L131.727 269.24L132.655 267.416L135.759 263H138.639L133.231 270.68L138.959 279H135.919L132.527 274.136L131.567 272.216L130.575 274.136L127.119 279H124.271L130.031 270.808ZM142.852 263H145.412V279H142.852V263ZM142.308 258.136C142.308 257.645 142.468 257.229 142.788 256.888C143.129 256.525 143.556 256.344 144.068 256.344C144.58 256.344 145.017 256.525 145.38 256.888C145.742 257.229 145.924 257.645 145.924 258.136C145.924 258.627 145.742 259.032 145.38 259.352C145.017 259.672 144.58 259.832 144.068 259.832C143.556 259.832 143.129 259.672 142.788 259.352C142.468 259.032 142.308 258.627 142.308 258.136ZM162.55 277.72C161.91 278.232 161.1 278.637 160.118 278.936C159.158 279.235 158.134 279.384 157.046 279.384C155.83 279.384 154.774 279.192 153.878 278.808C152.982 278.403 152.246 277.837 151.67 277.112C151.094 276.365 150.668 275.48 150.39 274.456C150.113 273.432 149.974 272.28 149.974 271C149.974 268.269 150.582 266.189 151.798 264.76C153.014 263.331 154.753 262.616 157.014 262.616C157.74 262.616 158.465 262.701 159.19 262.872C159.916 263.021 160.566 263.32 161.142 263.768C161.718 264.216 162.188 264.856 162.55 265.688C162.913 266.499 163.094 267.576 163.094 268.92C163.094 269.624 163.03 270.403 162.902 271.256H152.63C152.63 272.195 152.726 273.027 152.918 273.752C153.11 274.477 153.409 275.096 153.814 275.608C154.22 276.099 154.742 276.483 155.382 276.76C156.044 277.016 156.844 277.144 157.782 277.144C158.508 277.144 159.233 277.016 159.958 276.76C160.684 276.504 161.228 276.205 161.59 275.864L162.55 277.72ZM157.046 264.856C155.788 264.856 154.774 265.187 154.006 265.848C153.26 266.509 152.812 267.64 152.662 269.24H160.598C160.598 267.619 160.289 266.488 159.67 265.848C159.052 265.187 158.177 264.856 157.046 264.856ZM165.008 263H167.504V259.832L170.064 259.096V263H174.416V265.24H170.064V274.104C170.064 275.213 170.203 276.003 170.48 276.472C170.758 276.92 171.227 277.144 171.888 277.144C172.443 277.144 172.912 277.091 173.296 276.984C173.68 276.856 174.107 276.696 174.576 276.504L175.152 278.456C174.576 278.733 173.947 278.957 173.264 279.128C172.582 279.299 171.846 279.384 171.056 279.384C169.755 279.384 168.838 279.021 168.304 278.296C167.771 277.549 167.504 276.312 167.504 274.584V265.24H165.008V263ZM182.668 273.368L183.564 276.44H183.724L184.428 273.336L187.532 263H190.124L185.388 277.368C185.025 278.413 184.663 279.427 184.3 280.408C183.959 281.389 183.575 282.264 183.148 283.032C182.721 283.8 182.241 284.408 181.708 284.856C181.175 285.325 180.556 285.56 179.852 285.56C179.084 285.56 178.455 285.453 177.964 285.24L178.412 283.032C178.689 283.139 178.956 283.192 179.212 283.192C179.809 283.192 180.385 282.872 180.94 282.232C181.495 281.613 181.953 280.536 182.316 279L175.884 263H178.828L182.668 273.368Z" fill="#667085"/>
<path d="M379.208 264.184C380.019 263.693 380.957 263.331 382.024 263.096C383.112 262.861 384.243 262.744 385.416 262.744C386.525 262.744 387.411 262.893 388.072 263.192C388.755 263.491 389.267 263.885 389.608 264.376C389.971 264.845 390.205 265.368 390.312 265.944C390.44 266.52 390.504 267.096 390.504 267.672C390.504 268.952 390.472 270.2 390.408 271.416C390.344 272.632 390.312 273.784 390.312 274.872C390.312 275.661 390.344 276.408 390.408 277.112C390.472 277.816 390.589 278.467 390.76 279.064H388.872L388.2 276.824H388.04C387.848 277.123 387.603 277.421 387.304 277.72C387.027 277.997 386.685 278.253 386.28 278.488C385.875 278.701 385.405 278.883 384.872 279.032C384.339 279.181 383.731 279.256 383.048 279.256C382.365 279.256 381.725 279.149 381.128 278.936C380.552 278.723 380.051 278.424 379.624 278.04C379.197 277.635 378.856 277.155 378.6 276.6C378.365 276.045 378.248 275.416 378.248 274.712C378.248 273.773 378.44 272.995 378.824 272.376C379.208 271.736 379.741 271.235 380.424 270.872C381.128 270.488 381.96 270.221 382.92 270.072C383.901 269.901 384.979 269.816 386.152 269.816C386.451 269.816 386.739 269.816 387.016 269.816C387.315 269.816 387.613 269.837 387.912 269.88C387.976 269.24 388.008 268.664 388.008 268.152C388.008 266.979 387.773 266.157 387.304 265.688C386.835 265.219 385.981 264.984 384.744 264.984C384.381 264.984 383.987 265.016 383.56 265.08C383.155 265.123 382.728 265.197 382.28 265.304C381.853 265.389 381.437 265.507 381.032 265.656C380.648 265.784 380.307 265.933 380.008 266.104L379.208 264.184ZM383.752 277.016C384.349 277.016 384.883 276.941 385.352 276.792C385.821 276.621 386.227 276.419 386.568 276.184C386.909 275.928 387.187 275.651 387.4 275.352C387.635 275.053 387.805 274.765 387.912 274.488V271.832C387.613 271.811 387.304 271.8 386.984 271.8C386.685 271.779 386.387 271.768 386.088 271.768C385.427 271.768 384.776 271.811 384.136 271.896C383.517 271.96 382.963 272.099 382.472 272.312C382.003 272.504 381.619 272.781 381.32 273.144C381.043 273.485 380.904 273.923 380.904 274.456C380.904 275.203 381.171 275.821 381.704 276.312C382.237 276.781 382.92 277.016 383.752 277.016ZM407.595 279.736C407.595 281.805 407.04 283.331 405.931 284.312C404.843 285.293 403.222 285.784 401.067 285.784C399.787 285.784 398.752 285.699 397.963 285.528C397.195 285.379 396.534 285.176 395.979 284.92L396.651 282.744C397.142 282.936 397.686 283.117 398.283 283.288C398.88 283.459 399.659 283.544 400.619 283.544C401.515 283.544 402.24 283.459 402.795 283.288C403.371 283.139 403.83 282.872 404.171 282.488C404.512 282.125 404.747 281.645 404.875 281.048C405.003 280.472 405.067 279.779 405.067 278.968V277.432H404.939C404.512 278.051 403.968 278.531 403.307 278.872C402.646 279.192 401.782 279.352 400.715 279.352C398.56 279.352 396.971 278.68 395.947 277.336C394.944 275.992 394.443 273.901 394.443 271.064C394.443 268.333 395.094 266.264 396.395 264.856C397.696 263.427 399.616 262.712 402.155 262.712C403.371 262.712 404.406 262.808 405.259 263C406.134 263.192 406.912 263.416 407.595 263.672V279.736ZM401.163 277.112C402.251 277.112 403.104 276.845 403.723 276.312C404.342 275.757 404.779 274.904 405.035 273.752V265.56C404.182 265.155 403.094 264.952 401.771 264.952C400.32 264.952 399.179 265.443 398.347 266.424C397.515 267.405 397.099 268.941 397.099 271.032C397.099 271.928 397.174 272.749 397.323 273.496C397.472 274.243 397.707 274.883 398.027 275.416C398.347 275.949 398.763 276.365 399.275 276.664C399.787 276.963 400.416 277.112 401.163 277.112ZM424.783 279.736C424.783 281.805 424.228 283.331 423.119 284.312C422.031 285.293 420.409 285.784 418.255 285.784C416.975 285.784 415.94 285.699 415.151 285.528C414.383 285.379 413.721 285.176 413.167 284.92L413.839 282.744C414.329 282.936 414.873 283.117 415.471 283.288C416.068 283.459 416.847 283.544 417.807 283.544C418.703 283.544 419.428 283.459 419.983 283.288C420.559 283.139 421.017 282.872 421.359 282.488C421.7 282.125 421.935 281.645 422.063 281.048C422.191 280.472 422.255 279.779 422.255 278.968V277.432H422.127C421.7 278.051 421.156 278.531 420.495 278.872C419.833 279.192 418.969 279.352 417.903 279.352C415.748 279.352 414.159 278.68 413.135 277.336C412.132 275.992 411.631 273.901 411.631 271.064C411.631 268.333 412.281 266.264 413.583 264.856C414.884 263.427 416.804 262.712 419.343 262.712C420.559 262.712 421.593 262.808 422.447 263C423.321 263.192 424.1 263.416 424.783 263.672V279.736ZM418.351 277.112C419.439 277.112 420.292 276.845 420.911 276.312C421.529 275.757 421.967 274.904 422.223 273.752V265.56C421.369 265.155 420.281 264.952 418.959 264.952C417.508 264.952 416.367 265.443 415.535 266.424C414.703 267.405 414.286 268.941 414.286 271.032C414.286 271.928 414.361 272.749 414.511 273.496C414.66 274.243 414.895 274.883 415.215 275.416C415.535 275.949 415.951 276.365 416.463 276.664C416.975 276.963 417.604 277.112 418.351 277.112ZM437.266 265.464C436.626 265.251 436.018 265.144 435.442 265.144C434.525 265.144 433.799 265.4 433.266 265.912C432.733 266.403 432.402 267.032 432.274 267.8V279H429.714V263H431.506L431.986 264.952H432.114C432.519 264.227 432.999 263.672 433.554 263.288C434.13 262.883 434.855 262.68 435.73 262.68C436.349 262.68 437.042 262.787 437.81 263L437.266 265.464ZM452.269 277.72C451.629 278.232 450.818 278.637 449.837 278.936C448.877 279.235 447.853 279.384 446.765 279.384C445.549 279.384 444.493 279.192 443.597 278.808C442.701 278.403 441.965 277.837 441.389 277.112C440.813 276.365 440.386 275.48 440.109 274.456C439.832 273.432 439.693 272.28 439.693 271C439.693 268.269 440.301 266.189 441.517 264.76C442.733 263.331 444.472 262.616 446.733 262.616C447.458 262.616 448.184 262.701 448.909 262.872C449.634 263.021 450.285 263.32 450.861 263.768C451.437 264.216 451.906 264.856 452.269 265.688C452.632 266.499 452.813 267.576 452.813 268.92C452.813 269.624 452.749 270.403 452.621 271.256H442.349C442.349 272.195 442.445 273.027 442.637 273.752C442.829 274.477 443.128 275.096 443.533 275.608C443.938 276.099 444.461 276.483 445.101 276.76C445.762 277.016 446.562 277.144 447.501 277.144C448.226 277.144 448.952 277.016 449.677 276.76C450.402 276.504 450.946 276.205 451.309 275.864L452.269 277.72ZM446.765 264.856C445.506 264.856 444.493 265.187 443.725 265.848C442.978 266.509 442.53 267.64 442.381 269.24H450.317C450.317 267.619 450.008 266.488 449.389 265.848C448.77 265.187 447.896 264.856 446.765 264.856ZM463.879 274.648C463.879 274.008 463.687 273.507 463.303 273.144C462.919 272.781 462.439 272.483 461.863 272.248C461.308 271.992 460.69 271.757 460.007 271.544C459.346 271.309 458.727 271.021 458.151 270.68C457.596 270.317 457.127 269.859 456.743 269.304C456.359 268.749 456.167 268.003 456.167 267.064C456.167 265.528 456.604 264.408 457.479 263.704C458.354 262.979 459.57 262.616 461.127 262.616C462.279 262.616 463.239 262.723 464.007 262.936C464.796 263.128 465.479 263.363 466.055 263.64L465.447 265.752C464.956 265.517 464.359 265.315 463.655 265.144C462.972 264.952 462.236 264.856 461.447 264.856C460.508 264.856 459.815 265.016 459.367 265.336C458.94 265.656 458.727 266.211 458.727 267C458.727 267.555 458.919 267.992 459.303 268.312C459.687 268.611 460.156 268.888 460.711 269.144C461.287 269.379 461.906 269.613 462.567 269.848C463.25 270.083 463.868 270.392 464.423 270.776C464.999 271.16 465.479 271.651 465.863 272.248C466.247 272.824 466.439 273.592 466.439 274.552C466.439 275.235 466.322 275.875 466.087 276.472C465.874 277.069 465.532 277.581 465.063 278.008C464.594 278.435 464.007 278.765 463.303 279C462.62 279.256 461.81 279.384 460.871 279.384C459.655 279.384 458.62 279.267 457.767 279.032C456.914 278.797 456.199 278.52 455.623 278.2L456.391 276.024C456.882 276.301 457.522 276.557 458.311 276.792C459.1 277.027 459.9 277.144 460.711 277.144C461.628 277.144 462.386 276.963 462.983 276.6C463.58 276.237 463.879 275.587 463.879 274.648ZM477.348 274.648C477.348 274.008 477.156 273.507 476.772 273.144C476.388 272.781 475.908 272.483 475.332 272.248C474.777 271.992 474.158 271.757 473.476 271.544C472.814 271.309 472.196 271.021 471.62 270.68C471.065 270.317 470.596 269.859 470.212 269.304C469.828 268.749 469.636 268.003 469.636 267.064C469.636 265.528 470.073 264.408 470.948 263.704C471.822 262.979 473.038 262.616 474.596 262.616C475.748 262.616 476.708 262.723 477.476 262.936C478.265 263.128 478.948 263.363 479.524 263.64L478.916 265.752C478.425 265.517 477.828 265.315 477.124 265.144C476.441 264.952 475.705 264.856 474.916 264.856C473.977 264.856 473.284 265.016 472.836 265.336C472.409 265.656 472.196 266.211 472.196 267C472.196 267.555 472.388 267.992 472.772 268.312C473.156 268.611 473.625 268.888 474.18 269.144C474.756 269.379 475.374 269.613 476.036 269.848C476.718 270.083 477.337 270.392 477.892 270.776C478.468 271.16 478.948 271.651 479.332 272.248C479.716 272.824 479.908 273.592 479.908 274.552C479.908 275.235 479.79 275.875 479.556 276.472C479.342 277.069 479.001 277.581 478.532 278.008C478.062 278.435 477.476 278.765 476.772 279C476.089 279.256 475.278 279.384 474.34 279.384C473.124 279.384 472.089 279.267 471.236 279.032C470.382 278.797 469.668 278.52 469.092 278.2L469.86 276.024C470.35 276.301 470.99 276.557 471.78 276.792C472.569 277.027 473.369 277.144 474.18 277.144C475.097 277.144 475.854 276.963 476.452 276.6C477.049 276.237 477.348 275.587 477.348 274.648ZM484.321 263H486.881V279H484.321V263ZM483.777 258.136C483.777 257.645 483.937 257.229 484.257 256.888C484.598 256.525 485.025 256.344 485.536 256.344C486.049 256.344 486.486 256.525 486.849 256.888C487.211 257.229 487.393 257.645 487.393 258.136C487.393 258.627 487.211 259.032 486.849 259.352C486.486 259.672 486.049 259.832 485.536 259.832C485.025 259.832 484.598 259.672 484.257 259.352C483.937 259.032 483.777 258.627 483.777 258.136ZM491.443 271C491.443 268.291 492.04 266.221 493.235 264.792C494.451 263.341 496.19 262.616 498.451 262.616C499.646 262.616 500.68 262.819 501.555 263.224C502.451 263.608 503.187 264.173 503.763 264.92C504.339 265.645 504.766 266.531 505.043 267.576C505.32 268.6 505.459 269.741 505.459 271C505.459 273.709 504.851 275.789 503.635 277.24C502.44 278.669 500.712 279.384 498.451 279.384C497.256 279.384 496.211 279.192 495.315 278.808C494.44 278.403 493.715 277.837 493.139 277.112C492.563 276.365 492.136 275.48 491.859 274.456C491.582 273.411 491.443 272.259 491.443 271ZM494.099 271C494.099 271.811 494.174 272.589 494.323 273.336C494.494 274.083 494.75 274.733 495.091 275.288C495.432 275.843 495.88 276.291 496.435 276.632C496.99 276.973 497.662 277.144 498.451 277.144C501.352 277.165 502.803 275.117 502.803 271C502.803 270.168 502.718 269.379 502.547 268.632C502.398 267.885 502.152 267.235 501.811 266.68C501.47 266.125 501.022 265.688 500.467 265.368C499.912 265.027 499.24 264.856 498.451 264.856C495.55 264.835 494.099 266.883 494.099 271ZM519.767 279V269.88C519.767 268.216 519.522 266.968 519.031 266.136C518.562 265.283 517.687 264.856 516.407 264.856C515.277 264.856 514.338 265.165 513.591 265.784C512.866 266.381 512.354 267.139 512.055 268.056V279H509.495V263H511.287L511.767 264.952H511.895C512.407 264.269 513.09 263.715 513.943 263.288C514.818 262.84 515.853 262.616 517.047 262.616C517.922 262.616 518.69 262.723 519.351 262.936C520.013 263.128 520.557 263.48 520.983 263.992C521.431 264.504 521.762 265.197 521.975 266.072C522.21 266.925 522.327 268.013 522.327 269.336V279H519.767Z" fill="#667085"/>
<path d="M83.752 792.496C83.752 793.584 83.7627 794.576 83.784 795.472C83.8053 796.347 83.9013 797.211 84.072 798.064H82.344L81.704 795.792H81.576C81.1493 796.539 80.5307 797.157 79.72 797.648C78.9093 798.139 77.96 798.384 76.872 798.384C74.7387 798.384 73.1493 797.712 72.104 796.368C71.08 795.024 70.568 792.923 70.568 790.064C70.568 787.333 71.208 785.264 72.488 783.856C73.7893 782.427 75.5707 781.712 77.832 781.712C78.6213 781.712 79.24 781.755 79.688 781.84C80.1573 781.925 80.6587 782.064 81.192 782.256V775.6H83.752V792.496ZM77.288 796.144C78.376 796.144 79.24 795.867 79.88 795.312C80.52 794.736 80.9573 793.872 81.192 792.72V784.784C80.808 784.485 80.3707 784.272 79.88 784.144C79.3893 784.016 78.7387 783.952 77.928 783.952C76.456 783.952 75.304 784.443 74.472 785.424C73.64 786.384 73.224 787.931 73.224 790.064C73.224 790.939 73.288 791.749 73.416 792.496C73.5653 793.243 73.8 793.883 74.12 794.416C74.44 794.949 74.856 795.376 75.368 795.696C75.9013 795.995 76.5413 796.144 77.288 796.144ZM96.2348 784.464C95.5948 784.251 94.9868 784.144 94.4108 784.144C93.4934 784.144 92.7681 784.4 92.2348 784.912C91.7014 785.403 91.3708 786.032 91.2428 786.8V798H88.6828V782H90.4748L90.9548 783.952H91.0828C91.4881 783.227 91.9681 782.672 92.5228 782.288C93.0988 781.883 93.8241 781.68 94.6988 781.68C95.3174 781.68 96.0108 781.787 96.7788 782L96.2348 784.464ZM101.862 782V791.12C101.862 791.952 101.904 792.688 101.99 793.328C102.096 793.947 102.267 794.469 102.502 794.896C102.736 795.301 103.056 795.611 103.462 795.824C103.867 796.037 104.379 796.144 104.998 796.144C105.574 796.144 106.086 796.059 106.534 795.888C106.982 795.696 107.376 795.44 107.718 795.12C108.08 794.8 108.39 794.437 108.646 794.032C108.923 793.605 109.147 793.157 109.318 792.688V782H111.878V793.456C111.878 794.224 111.899 795.024 111.942 795.856C112.006 796.667 112.102 797.381 112.23 798H110.47L109.83 795.472H109.67C109.179 796.304 108.518 796.997 107.686 797.552C106.854 798.107 105.798 798.384 104.518 798.384C103.664 798.384 102.907 798.277 102.246 798.064C101.606 797.872 101.062 797.52 100.614 797.008C100.187 796.496 99.8564 795.813 99.6218 794.96C99.4084 794.085 99.3018 792.987 99.3018 791.664V782H101.862ZM129.064 798.736C129.064 800.805 128.509 802.331 127.4 803.312C126.312 804.293 124.69 804.784 122.536 804.784C121.256 804.784 120.221 804.699 119.432 804.528C118.664 804.379 118.002 804.176 117.448 803.92L118.12 801.744C118.61 801.936 119.154 802.117 119.752 802.288C120.349 802.459 121.128 802.544 122.088 802.544C122.984 802.544 123.709 802.459 124.264 802.288C124.84 802.139 125.298 801.872 125.64 801.488C125.981 801.125 126.216 800.645 126.344 800.048C126.472 799.472 126.536 798.779 126.536 797.968V796.432H126.408C125.981 797.051 125.437 797.531 124.776 797.872C124.114 798.192 123.25 798.352 122.184 798.352C120.029 798.352 118.44 797.68 117.416 796.336C116.413 794.992 115.912 792.901 115.912 790.064C115.912 787.333 116.562 785.264 117.864 783.856C119.165 782.427 121.085 781.712 123.624 781.712C124.84 781.712 125.874 781.808 126.728 782C127.602 782.192 128.381 782.416 129.064 782.672V798.736ZM122.632 796.112C123.72 796.112 124.573 795.845 125.192 795.312C125.81 794.757 126.248 793.904 126.504 792.752V784.56C125.65 784.155 124.562 783.952 123.24 783.952C121.789 783.952 120.648 784.443 119.816 785.424C118.984 786.405 118.568 787.941 118.568 790.032C118.568 790.928 118.642 791.749 118.792 792.496C118.941 793.243 119.176 793.883 119.496 794.416C119.816 794.949 120.232 795.365 120.744 795.664C121.256 795.963 121.885 796.112 122.632 796.112ZM141.035 793.648C141.035 793.008 140.843 792.507 140.459 792.144C140.075 791.781 139.595 791.483 139.019 791.248C138.465 790.992 137.846 790.757 137.163 790.544C136.502 790.309 135.883 790.021 135.307 789.68C134.753 789.317 134.283 788.859 133.899 788.304C133.515 787.749 133.323 787.003 133.323 786.064C133.323 784.528 133.761 783.408 134.635 782.704C135.51 781.979 136.726 781.616 138.283 781.616C139.435 781.616 140.395 781.723 141.163 781.936C141.953 782.128 142.635 782.363 143.211 782.64L142.603 784.752C142.113 784.517 141.515 784.315 140.811 784.144C140.129 783.952 139.393 783.856 138.603 783.856C137.665 783.856 136.971 784.016 136.523 784.336C136.097 784.656 135.883 785.211 135.883 786C135.883 786.555 136.075 786.992 136.459 787.312C136.843 787.611 137.313 787.888 137.867 788.144C138.443 788.379 139.062 788.613 139.723 788.848C140.406 789.083 141.025 789.392 141.579 789.776C142.155 790.16 142.635 790.651 143.019 791.248C143.403 791.824 143.595 792.592 143.595 793.552C143.595 794.235 143.478 794.875 143.243 795.472C143.03 796.069 142.689 796.581 142.219 797.008C141.75 797.435 141.163 797.765 140.459 798C139.777 798.256 138.966 798.384 138.027 798.384C136.811 798.384 135.777 798.267 134.923 798.032C134.07 797.797 133.355 797.52 132.779 797.2L133.547 795.024C134.038 795.301 134.678 795.557 135.467 795.792C136.257 796.027 137.057 796.144 137.867 796.144C138.785 796.144 139.542 795.963 140.139 795.6C140.737 795.237 141.035 794.587 141.035 793.648Z" fill="#667085"/>
<rect x="-1" y="508" width="595" height="44.9999" fill="#FEE8EE"/>
<path d="M419.208 783.184C420.019 782.693 420.957 782.331 422.024 782.096C423.112 781.861 424.243 781.744 425.416 781.744C426.525 781.744 427.411 781.893 428.072 782.192C428.755 782.491 429.267 782.885 429.608 783.376C429.971 783.845 430.205 784.368 430.312 784.944C430.44 785.52 430.504 786.096 430.504 786.672C430.504 787.952 430.472 789.2 430.408 790.416C430.344 791.632 430.312 792.784 430.312 793.872C430.312 794.661 430.344 795.408 430.408 796.112C430.472 796.816 430.589 797.467 430.76 798.064H428.872L428.2 795.824H428.04C427.848 796.123 427.603 796.421 427.304 796.72C427.027 796.997 426.685 797.253 426.28 797.488C425.875 797.701 425.405 797.883 424.872 798.032C424.339 798.181 423.731 798.256 423.048 798.256C422.365 798.256 421.725 798.149 421.128 797.936C420.552 797.723 420.051 797.424 419.624 797.04C419.197 796.635 418.856 796.155 418.6 795.6C418.365 795.045 418.248 794.416 418.248 793.712C418.248 792.773 418.44 791.995 418.824 791.376C419.208 790.736 419.741 790.235 420.424 789.872C421.128 789.488 421.96 789.221 422.92 789.072C423.901 788.901 424.979 788.816 426.152 788.816C426.451 788.816 426.739 788.816 427.016 788.816C427.315 788.816 427.613 788.837 427.912 788.88C427.976 788.24 428.008 787.664 428.008 787.152C428.008 785.979 427.773 785.157 427.304 784.688C426.835 784.219 425.981 783.984 424.744 783.984C424.381 783.984 423.987 784.016 423.56 784.08C423.155 784.123 422.728 784.197 422.28 784.304C421.853 784.389 421.437 784.507 421.032 784.656C420.648 784.784 420.307 784.933 420.008 785.104L419.208 783.184ZM423.752 796.016C424.349 796.016 424.883 795.941 425.352 795.792C425.821 795.621 426.227 795.419 426.568 795.184C426.909 794.928 427.187 794.651 427.4 794.352C427.635 794.053 427.805 793.765 427.912 793.488V790.832C427.613 790.811 427.304 790.8 426.984 790.8C426.685 790.779 426.387 790.768 426.088 790.768C425.427 790.768 424.776 790.811 424.136 790.896C423.517 790.96 422.963 791.099 422.472 791.312C422.003 791.504 421.619 791.781 421.32 792.144C421.043 792.485 420.904 792.923 420.904 793.456C420.904 794.203 421.171 794.821 421.704 795.312C422.237 795.781 422.92 796.016 423.752 796.016ZM438.187 794.064C438.187 794.811 438.315 795.344 438.571 795.664C438.827 795.984 439.19 796.144 439.659 796.144C439.936 796.144 440.235 796.123 440.555 796.08C440.875 796.037 441.238 795.941 441.643 795.792L441.931 797.808C441.59 797.979 441.11 798.117 440.491 798.224C439.894 798.331 439.371 798.384 438.923 798.384C437.963 798.384 437.174 798.117 436.555 797.584C435.936 797.029 435.627 796.101 435.627 794.8V775.6H438.187V794.064ZM455.595 796.944C454.955 797.413 454.197 797.765 453.323 798C452.448 798.256 451.531 798.384 450.571 798.384C449.333 798.384 448.288 798.192 447.435 797.808C446.581 797.403 445.877 796.837 445.323 796.112C444.789 795.365 444.395 794.48 444.139 793.456C443.904 792.411 443.787 791.259 443.787 790C443.787 787.291 444.384 785.221 445.579 783.792C446.773 782.341 448.491 781.616 450.731 781.616C451.755 781.616 452.619 781.701 453.323 781.872C454.048 782.021 454.699 782.245 455.275 782.544L454.539 784.752C454.048 784.475 453.504 784.261 452.907 784.112C452.309 783.941 451.669 783.856 450.987 783.856C447.957 783.856 446.443 785.904 446.443 790C446.443 790.811 446.517 791.589 446.667 792.336C446.837 793.061 447.104 793.712 447.467 794.288C447.851 794.843 448.341 795.291 448.939 795.632C449.557 795.973 450.315 796.144 451.211 796.144C451.979 796.144 452.661 796.027 453.259 795.792C453.877 795.557 454.379 795.291 454.763 794.992L455.595 796.944ZM457.474 790C457.474 787.291 458.072 785.221 459.266 783.792C460.482 782.341 462.221 781.616 464.482 781.616C465.677 781.616 466.712 781.819 467.586 782.224C468.482 782.608 469.218 783.173 469.794 783.92C470.37 784.645 470.797 785.531 471.074 786.576C471.352 787.6 471.49 788.741 471.49 790C471.49 792.709 470.882 794.789 469.666 796.24C468.472 797.669 466.744 798.384 464.482 798.384C463.288 798.384 462.242 798.192 461.346 797.808C460.472 797.403 459.746 796.837 459.17 796.112C458.594 795.365 458.168 794.48 457.89 793.456C457.613 792.411 457.474 791.259 457.474 790ZM460.13 790C460.13 790.811 460.205 791.589 460.354 792.336C460.525 793.083 460.781 793.733 461.122 794.288C461.464 794.843 461.912 795.291 462.466 795.632C463.021 795.973 463.693 796.144 464.482 796.144C467.384 796.165 468.834 794.117 468.834 790C468.834 789.168 468.749 788.379 468.578 787.632C468.429 786.885 468.184 786.235 467.842 785.68C467.501 785.125 467.053 784.688 466.498 784.368C465.944 784.027 465.272 783.856 464.482 783.856C461.581 783.835 460.13 785.883 460.13 790ZM485.799 798V788.88C485.799 788.048 485.745 787.323 485.639 786.704C485.553 786.064 485.383 785.541 485.127 785.136C484.871 784.709 484.519 784.389 484.071 784.176C483.644 783.963 483.079 783.856 482.375 783.856C481.372 783.856 480.465 784.187 479.655 784.848C478.844 785.488 478.321 786.32 478.087 787.344V798H475.527V775.6H478.087V783.792H478.215C478.769 783.131 479.431 782.608 480.199 782.224C480.988 781.819 481.959 781.616 483.111 781.616C484.007 781.616 484.785 781.723 485.447 781.936C486.108 782.128 486.652 782.48 487.079 782.992C487.527 783.504 487.847 784.197 488.039 785.072C488.252 785.925 488.359 787.013 488.359 788.336V798H485.799ZM492.131 790C492.131 787.291 492.728 785.221 493.923 783.792C495.139 782.341 496.877 781.616 499.139 781.616C500.333 781.616 501.368 781.819 502.243 782.224C503.139 782.608 503.875 783.173 504.451 783.92C505.027 784.645 505.453 785.531 505.731 786.576C506.008 787.6 506.147 788.741 506.147 790C506.147 792.709 505.539 794.789 504.323 796.24C503.128 797.669 501.4 798.384 499.139 798.384C497.944 798.384 496.899 798.192 496.003 797.808C495.128 797.403 494.403 796.837 493.827 796.112C493.251 795.365 492.824 794.48 492.547 793.456C492.269 792.411 492.131 791.259 492.131 790ZM494.786 790C494.786 790.811 494.861 791.589 495.011 792.336C495.181 793.083 495.437 793.733 495.779 794.288C496.12 794.843 496.568 795.291 497.123 795.632C497.677 795.973 498.349 796.144 499.139 796.144C502.04 796.165 503.491 794.117 503.491 790C503.491 789.168 503.405 788.379 503.235 787.632C503.085 786.885 502.84 786.235 502.499 785.68C502.157 785.125 501.709 784.688 501.155 784.368C500.6 784.027 499.928 783.856 499.139 783.856C496.237 783.835 494.786 785.883 494.786 790ZM513.031 794.064C513.031 794.811 513.159 795.344 513.415 795.664C513.671 795.984 514.033 796.144 514.503 796.144C514.78 796.144 515.079 796.123 515.399 796.08C515.719 796.037 516.081 795.941 516.487 795.792L516.775 797.808C516.433 797.979 515.953 798.117 515.335 798.224C514.737 798.331 514.215 798.384 513.767 798.384C512.807 798.384 512.017 798.117 511.399 797.584C510.78 797.029 510.471 796.101 510.471 794.8V775.6H513.031V794.064Z" fill="#667085"/>
<path d="M135.464 524H137.224L137.704 525.92H137.832C138.323 525.173 138.952 524.608 139.72 524.224C140.509 523.819 141.405 523.616 142.408 523.616C144.541 523.616 146.131 524.245 147.176 525.504C148.221 526.763 148.744 528.821 148.744 531.68C148.744 533.024 148.563 534.24 148.2 535.328C147.859 536.395 147.368 537.301 146.728 538.048C146.088 538.795 145.309 539.371 144.392 539.776C143.496 540.181 142.493 540.384 141.384 540.384C140.595 540.384 139.965 540.331 139.496 540.224C139.048 540.139 138.557 539.979 138.024 539.744V546.4H135.464V524ZM141.928 525.856C140.84 525.856 139.976 526.144 139.336 526.72C138.717 527.275 138.28 528.128 138.024 529.28V537.216C138.408 537.515 138.845 537.749 139.336 537.92C139.827 538.069 140.477 538.144 141.288 538.144C142.76 538.144 143.923 537.6 144.776 536.512C145.651 535.403 146.088 533.781 146.088 531.648C146.088 530.773 146.013 529.984 145.864 529.28C145.715 528.555 145.469 527.947 145.128 527.456C144.808 526.944 144.381 526.549 143.848 526.272C143.336 525.995 142.696 525.856 141.928 525.856ZM151.881 532C151.881 529.291 152.478 527.221 153.673 525.792C154.889 524.341 156.627 523.616 158.889 523.616C160.083 523.616 161.118 523.819 161.993 524.224C162.889 524.608 163.625 525.173 164.201 525.92C164.777 526.645 165.203 527.531 165.481 528.576C165.758 529.6 165.897 530.741 165.897 532C165.897 534.709 165.289 536.789 164.073 538.24C162.878 539.669 161.15 540.384 158.889 540.384C157.694 540.384 156.649 540.192 155.753 539.808C154.878 539.403 154.153 538.837 153.577 538.112C153.001 537.365 152.574 536.48 152.297 535.456C152.019 534.411 151.881 533.259 151.881 532ZM154.536 532C154.536 532.811 154.611 533.589 154.761 534.336C154.931 535.083 155.187 535.733 155.529 536.288C155.87 536.843 156.318 537.291 156.873 537.632C157.427 537.973 158.099 538.144 158.889 538.144C161.79 538.165 163.241 536.117 163.241 532C163.241 531.168 163.155 530.379 162.985 529.632C162.835 528.885 162.59 528.235 162.249 527.68C161.907 527.125 161.459 526.688 160.905 526.368C160.35 526.027 159.678 525.856 158.889 525.856C155.987 525.835 154.536 527.883 154.536 532ZM169.037 532C169.037 529.291 169.634 527.221 170.829 525.792C172.045 524.341 173.783 523.616 176.045 523.616C177.239 523.616 178.274 523.819 179.149 524.224C180.045 524.608 180.781 525.173 181.357 525.92C181.933 526.645 182.359 527.531 182.637 528.576C182.914 529.6 183.053 530.741 183.053 532C183.053 534.709 182.445 536.789 181.229 538.24C180.034 539.669 178.306 540.384 176.045 540.384C174.85 540.384 173.805 540.192 172.909 539.808C172.034 539.403 171.309 538.837 170.733 538.112C170.157 537.365 169.73 536.48 169.453 535.456C169.175 534.411 169.037 533.259 169.037 532ZM171.693 532C171.693 532.811 171.767 533.589 171.917 534.336C172.087 535.083 172.343 535.733 172.685 536.288C173.026 536.843 173.474 537.291 174.029 537.632C174.583 537.973 175.255 538.144 176.045 538.144C178.946 538.165 180.397 536.117 180.397 532C180.397 531.168 180.311 530.379 180.141 529.632C179.991 528.885 179.746 528.235 179.405 527.68C179.063 527.125 178.615 526.688 178.061 526.368C177.506 526.027 176.834 525.856 176.045 525.856C173.143 525.835 171.693 527.883 171.693 532ZM194.641 526.464C194.001 526.251 193.393 526.144 192.817 526.144C191.9 526.144 191.174 526.4 190.641 526.912C190.108 527.403 189.777 528.032 189.649 528.8V540H187.089V524H188.881L189.361 525.952H189.489C189.894 525.227 190.374 524.672 190.929 524.288C191.505 523.883 192.23 523.68 193.105 523.68C193.724 523.68 194.417 523.787 195.185 524L194.641 526.464ZM217.407 538.944C216.767 539.413 216.01 539.765 215.135 540C214.261 540.256 213.343 540.384 212.383 540.384C211.146 540.384 210.101 540.192 209.247 539.808C208.394 539.403 207.69 538.837 207.135 538.112C206.602 537.365 206.207 536.48 205.951 535.456C205.717 534.411 205.599 533.259 205.599 532C205.599 529.291 206.197 527.221 207.391 525.792C208.586 524.341 210.303 523.616 212.543 523.616C213.567 523.616 214.431 523.701 215.135 523.872C215.861 524.021 216.511 524.245 217.087 524.544L216.351 526.752C215.861 526.475 215.317 526.261 214.719 526.112C214.122 525.941 213.482 525.856 212.799 525.856C209.77 525.856 208.255 527.904 208.255 532C208.255 532.811 208.33 533.589 208.479 534.336C208.65 535.061 208.917 535.712 209.279 536.288C209.663 536.843 210.154 537.291 210.751 537.632C211.37 537.973 212.127 538.144 213.023 538.144C213.791 538.144 214.474 538.027 215.071 537.792C215.69 537.557 216.191 537.291 216.575 536.992L217.407 538.944ZM219.287 532C219.287 529.291 219.884 527.221 221.079 525.792C222.295 524.341 224.033 523.616 226.295 523.616C227.489 523.616 228.524 523.819 229.399 524.224C230.295 524.608 231.031 525.173 231.607 525.92C232.183 526.645 232.609 527.531 232.887 528.576C233.164 529.6 233.303 530.741 233.303 532C233.303 534.709 232.695 536.789 231.479 538.24C230.284 539.669 228.556 540.384 226.295 540.384C225.1 540.384 224.055 540.192 223.159 539.808C222.284 539.403 221.559 538.837 220.983 538.112C220.407 537.365 219.98 536.48 219.703 535.456C219.425 534.411 219.287 533.259 219.287 532ZM221.943 532C221.943 532.811 222.017 533.589 222.167 534.336C222.337 535.083 222.593 535.733 222.935 536.288C223.276 536.843 223.724 537.291 224.279 537.632C224.833 537.973 225.505 538.144 226.295 538.144C229.196 538.165 230.647 536.117 230.647 532C230.647 531.168 230.561 530.379 230.391 529.632C230.241 528.885 229.996 528.235 229.655 527.68C229.313 527.125 228.865 526.688 228.311 526.368C227.756 526.027 227.084 525.856 226.295 525.856C223.393 525.835 221.943 527.883 221.943 532ZM237.339 524H239.099L239.579 525.92H239.707C240.198 525.173 240.827 524.608 241.595 524.224C242.384 523.819 243.28 523.616 244.283 523.616C246.416 523.616 248.006 524.245 249.051 525.504C250.096 526.763 250.619 528.821 250.619 531.68C250.619 533.024 250.438 534.24 250.075 535.328C249.734 536.395 249.243 537.301 248.603 538.048C247.963 538.795 247.184 539.371 246.267 539.776C245.371 540.181 244.368 540.384 243.259 540.384C242.47 540.384 241.84 540.331 241.371 540.224C240.923 540.139 240.432 539.979 239.899 539.744V546.4H237.339V524ZM243.803 525.856C242.715 525.856 241.851 526.144 241.211 526.72C240.592 527.275 240.155 528.128 239.899 529.28V537.216C240.283 537.515 240.72 537.749 241.211 537.92C241.702 538.069 242.352 538.144 243.163 538.144C244.635 538.144 245.798 537.6 246.651 536.512C247.526 535.403 247.963 533.781 247.963 531.648C247.963 530.773 247.888 529.984 247.739 529.28C247.59 528.555 247.344 527.947 247.003 527.456C246.683 526.944 246.256 526.549 245.723 526.272C245.211 525.995 244.571 525.856 243.803 525.856ZM255.196 524H257.756V540H255.196V524ZM254.652 519.136C254.652 518.645 254.812 518.229 255.132 517.888C255.473 517.525 255.9 517.344 256.411 517.344C256.924 517.344 257.361 517.525 257.724 517.888C258.086 518.229 258.268 518.645 258.268 519.136C258.268 519.627 258.086 520.032 257.724 520.352C257.361 520.672 256.924 520.832 256.411 520.832C255.9 520.832 255.473 520.672 255.132 520.352C254.812 520.032 254.652 519.627 254.652 519.136ZM273.486 540V530.88C273.486 529.216 273.241 527.968 272.75 527.136C272.281 526.283 271.406 525.856 270.126 525.856C268.995 525.856 268.057 526.165 267.31 526.784C266.585 527.381 266.073 528.139 265.774 529.056V540H263.214V524H265.006L265.486 525.952H265.614C266.126 525.269 266.809 524.715 267.662 524.288C268.537 523.84 269.571 523.616 270.766 523.616C271.641 523.616 272.409 523.723 273.07 523.936C273.731 524.128 274.275 524.48 274.702 524.992C275.15 525.504 275.481 526.197 275.694 527.072C275.929 527.925 276.046 529.013 276.046 530.336V540H273.486ZM292.97 540.736C292.97 542.805 292.415 544.331 291.306 545.312C290.218 546.293 288.597 546.784 286.442 546.784C285.162 546.784 284.127 546.699 283.338 546.528C282.57 546.379 281.909 546.176 281.354 545.92L282.026 543.744C282.517 543.936 283.061 544.117 283.658 544.288C284.255 544.459 285.034 544.544 285.994 544.544C286.89 544.544 287.615 544.459 288.17 544.288C288.746 544.139 289.205 543.872 289.546 543.488C289.887 543.125 290.122 542.645 290.25 542.048C290.378 541.472 290.442 540.779 290.442 539.968V538.432H290.314C289.887 539.051 289.343 539.531 288.682 539.872C288.021 540.192 287.157 540.352 286.09 540.352C283.935 540.352 282.346 539.68 281.322 538.336C280.319 536.992 279.818 534.901 279.818 532.064C279.818 529.333 280.469 527.264 281.77 525.856C283.071 524.427 284.991 523.712 287.53 523.712C288.746 523.712 289.781 523.808 290.634 524C291.509 524.192 292.287 524.416 292.97 524.672V540.736ZM286.538 538.112C287.626 538.112 288.479 537.845 289.098 537.312C289.717 536.757 290.154 535.904 290.41 534.752V526.56C289.557 526.155 288.469 525.952 287.146 525.952C285.695 525.952 284.554 526.443 283.722 527.424C282.89 528.405 282.474 529.941 282.474 532.032C282.474 532.928 282.549 533.749 282.698 534.496C282.847 535.243 283.082 535.883 283.402 536.416C283.722 536.949 284.138 537.365 284.65 537.664C285.162 537.963 285.791 538.112 286.538 538.112ZM313.473 535.648C313.473 535.008 313.281 534.507 312.897 534.144C312.513 533.781 312.033 533.483 311.457 533.248C310.902 532.992 310.283 532.757 309.601 532.544C308.939 532.309 308.321 532.021 307.745 531.68C307.19 531.317 306.721 530.859 306.337 530.304C305.953 529.749 305.761 529.003 305.761 528.064C305.761 526.528 306.198 525.408 307.073 524.704C307.947 523.979 309.163 523.616 310.721 523.616C311.873 523.616 312.833 523.723 313.601 523.936C314.39 524.128 315.073 524.363 315.649 524.64L315.041 526.752C314.55 526.517 313.953 526.315 313.249 526.144C312.566 525.952 311.83 525.856 311.041 525.856C310.102 525.856 309.409 526.016 308.961 526.336C308.534 526.656 308.321 527.211 308.321 528C308.321 528.555 308.513 528.992 308.897 529.312C309.281 529.611 309.75 529.888 310.305 530.144C310.881 530.379 311.499 530.613 312.161 530.848C312.843 531.083 313.462 531.392 314.017 531.776C314.593 532.16 315.073 532.651 315.457 533.248C315.841 533.824 316.033 534.592 316.033 535.552C316.033 536.235 315.915 536.875 315.681 537.472C315.467 538.069 315.126 538.581 314.657 539.008C314.187 539.435 313.601 539.765 312.897 540C312.214 540.256 311.403 540.384 310.465 540.384C309.249 540.384 308.214 540.267 307.361 540.032C306.507 539.797 305.793 539.52 305.217 539.2L305.985 537.024C306.475 537.301 307.115 537.557 307.905 537.792C308.694 538.027 309.494 538.144 310.305 538.144C311.222 538.144 311.979 537.963 312.577 537.6C313.174 537.237 313.473 536.587 313.473 535.648ZM323.934 532.8H322.462V540H319.902V517.6H322.462V531.232L323.774 530.784L328.734 524H331.71L326.814 530.432L325.502 531.488L327.102 532.768L332.446 540H329.278L323.934 532.8ZM335.758 524H338.318V540H335.758V524ZM335.214 519.136C335.214 518.645 335.374 518.229 335.694 517.888C336.035 517.525 336.462 517.344 336.974 517.344C337.486 517.344 337.923 517.525 338.286 517.888C338.649 518.229 338.83 518.645 338.83 519.136C338.83 519.627 338.649 520.032 338.286 520.352C337.923 520.672 337.486 520.832 336.974 520.832C336.462 520.832 336.035 520.672 335.694 520.352C335.374 520.032 335.214 519.627 335.214 519.136ZM346.625 536.064C346.625 536.811 346.753 537.344 347.009 537.664C347.265 537.984 347.627 538.144 348.097 538.144C348.374 538.144 348.673 538.123 348.993 538.08C349.313 538.037 349.675 537.941 350.081 537.792L350.369 539.808C350.027 539.979 349.547 540.117 348.929 540.224C348.331 540.331 347.809 540.384 347.361 540.384C346.401 540.384 345.611 540.117 344.993 539.584C344.374 539.029 344.065 538.101 344.065 536.8V517.6H346.625V536.064ZM355.968 536.064C355.968 536.811 356.096 537.344 356.352 537.664C356.608 537.984 356.971 538.144 357.44 538.144C357.718 538.144 358.016 538.123 358.336 538.08C358.656 538.037 359.019 537.941 359.424 537.792L359.712 539.808C359.371 539.979 358.891 540.117 358.272 540.224C357.675 540.331 357.152 540.384 356.704 540.384C355.744 540.384 354.955 540.117 354.336 539.584C353.718 539.029 353.408 538.101 353.408 536.8V517.6H355.968V536.064ZM369.504 535.648C369.504 535.008 369.312 534.507 368.928 534.144C368.544 533.781 368.064 533.483 367.488 533.248C366.933 532.992 366.315 532.757 365.632 532.544C364.971 532.309 364.352 532.021 363.776 531.68C363.221 531.317 362.752 530.859 362.368 530.304C361.984 529.749 361.792 529.003 361.792 528.064C361.792 526.528 362.229 525.408 363.104 524.704C363.979 523.979 365.195 523.616 366.752 523.616C367.904 523.616 368.864 523.723 369.632 523.936C370.421 524.128 371.104 524.363 371.68 524.64L371.072 526.752C370.581 526.517 369.984 526.315 369.28 526.144C368.597 525.952 367.861 525.856 367.072 525.856C366.133 525.856 365.44 526.016 364.992 526.336C364.565 526.656 364.352 527.211 364.352 528C364.352 528.555 364.544 528.992 364.928 529.312C365.312 529.611 365.781 529.888 366.336 530.144C366.912 530.379 367.531 530.613 368.192 530.848C368.875 531.083 369.493 531.392 370.048 531.776C370.624 532.16 371.104 532.651 371.488 533.248C371.872 533.824 372.064 534.592 372.064 535.552C372.064 536.235 371.947 536.875 371.712 537.472C371.499 538.069 371.157 538.581 370.688 539.008C370.219 539.435 369.632 539.765 368.928 540C368.245 540.256 367.435 540.384 366.496 540.384C365.28 540.384 364.245 540.267 363.392 540.032C362.539 539.797 361.824 539.52 361.248 539.2L362.016 537.024C362.507 537.301 363.147 537.557 363.936 537.792C364.725 538.027 365.525 538.144 366.336 538.144C367.253 538.144 368.011 537.963 368.608 537.6C369.205 537.237 369.504 536.587 369.504 535.648ZM391.504 535.648C391.504 535.008 391.312 534.507 390.928 534.144C390.544 533.781 390.064 533.483 389.488 533.248C388.933 532.992 388.315 532.757 387.632 532.544C386.971 532.309 386.352 532.021 385.776 531.68C385.221 531.317 384.752 530.859 384.368 530.304C383.984 529.749 383.792 529.003 383.792 528.064C383.792 526.528 384.229 525.408 385.104 524.704C385.979 523.979 387.195 523.616 388.752 523.616C389.904 523.616 390.864 523.723 391.632 523.936C392.421 524.128 393.104 524.363 393.68 524.64L393.072 526.752C392.581 526.517 391.984 526.315 391.28 526.144C390.597 525.952 389.861 525.856 389.072 525.856C388.133 525.856 387.44 526.016 386.992 526.336C386.565 526.656 386.352 527.211 386.352 528C386.352 528.555 386.544 528.992 386.928 529.312C387.312 529.611 387.781 529.888 388.336 530.144C388.912 530.379 389.531 530.613 390.192 530.848C390.875 531.083 391.493 531.392 392.048 531.776C392.624 532.16 393.104 532.651 393.488 533.248C393.872 533.824 394.064 534.592 394.064 535.552C394.064 536.235 393.947 536.875 393.712 537.472C393.499 538.069 393.157 538.581 392.688 539.008C392.219 539.435 391.632 539.765 390.928 540C390.245 540.256 389.435 540.384 388.496 540.384C387.28 540.384 386.245 540.267 385.392 540.032C384.539 539.797 383.824 539.52 383.248 539.2L384.016 537.024C384.507 537.301 385.147 537.557 385.936 537.792C386.725 538.027 387.525 538.144 388.336 538.144C389.253 538.144 390.011 537.963 390.608 537.6C391.205 537.237 391.504 536.587 391.504 535.648ZM400.237 524V533.12C400.237 533.952 400.279 534.688 400.365 535.328C400.471 535.947 400.642 536.469 400.877 536.896C401.111 537.301 401.431 537.611 401.837 537.824C402.242 538.037 402.754 538.144 403.373 538.144C403.949 538.144 404.461 538.059 404.909 537.888C405.357 537.696 405.751 537.44 406.093 537.12C406.455 536.8 406.765 536.437 407.021 536.032C407.298 535.605 407.522 535.157 407.693 534.688V524H410.253V535.456C410.253 536.224 410.274 537.024 410.317 537.856C410.381 538.667 410.477 539.381 410.605 540H408.845L408.205 537.472H408.045C407.554 538.304 406.893 538.997 406.061 539.552C405.229 540.107 404.173 540.384 402.893 540.384C402.039 540.384 401.282 540.277 400.621 540.064C399.981 539.872 399.437 539.52 398.989 539.008C398.562 538.496 398.231 537.813 397.997 536.96C397.783 536.085 397.677 534.987 397.677 533.664V524H400.237ZM426.095 538.944C425.455 539.413 424.697 539.765 423.823 540C422.948 540.256 422.031 540.384 421.071 540.384C419.833 540.384 418.788 540.192 417.935 539.808C417.081 539.403 416.377 538.837 415.823 538.112C415.289 537.365 414.895 536.48 414.639 535.456C414.404 534.411 414.287 533.259 414.287 532C414.287 529.291 414.884 527.221 416.079 525.792C417.273 524.341 418.991 523.616 421.231 523.616C422.255 523.616 423.119 523.701 423.823 523.872C424.548 524.021 425.199 524.245 425.775 524.544L425.039 526.752C424.548 526.475 424.004 526.261 423.407 526.112C422.809 525.941 422.169 525.856 421.487 525.856C418.457 525.856 416.943 527.904 416.943 532C416.943 532.811 417.017 533.589 417.167 534.336C417.337 535.061 417.604 535.712 417.967 536.288C418.351 536.843 418.841 537.291 419.439 537.632C420.057 537.973 420.815 538.144 421.711 538.144C422.479 538.144 423.161 538.027 423.759 537.792C424.377 537.557 424.879 537.291 425.263 536.992L426.095 538.944ZM439.892 540V530.88C439.892 530.048 439.839 529.323 439.732 528.704C439.647 528.064 439.476 527.541 439.22 527.136C438.964 526.709 438.612 526.389 438.164 526.176C437.738 525.963 437.172 525.856 436.468 525.856C435.466 525.856 434.559 526.187 433.748 526.848C432.938 527.488 432.415 528.32 432.18 529.344V540H429.62V517.6H432.18V525.792H432.308C432.863 525.131 433.524 524.608 434.292 524.224C435.082 523.819 436.052 523.616 437.204 523.616C438.1 523.616 438.879 523.723 439.54 523.936C440.202 524.128 440.746 524.48 441.172 524.992C441.62 525.504 441.94 526.197 442.132 527.072C442.346 527.925 442.452 529.013 442.452 530.336V540H439.892ZM455.396 525.184C456.206 524.693 457.145 524.331 458.212 524.096C459.3 523.861 460.43 523.744 461.604 523.744C462.713 523.744 463.598 523.893 464.26 524.192C464.942 524.491 465.454 524.885 465.796 525.376C466.158 525.845 466.393 526.368 466.5 526.944C466.628 527.52 466.692 528.096 466.692 528.672C466.692 529.952 466.66 531.2 466.596 532.416C466.532 533.632 466.5 534.784 466.5 535.872C466.5 536.661 466.532 537.408 466.596 538.112C466.66 538.816 466.777 539.467 466.948 540.064H465.06L464.388 537.824H464.228C464.036 538.123 463.79 538.421 463.492 538.72C463.214 538.997 462.873 539.253 462.468 539.488C462.062 539.701 461.593 539.883 461.06 540.032C460.526 540.181 459.918 540.256 459.236 540.256C458.553 540.256 457.913 540.149 457.316 539.936C456.74 539.723 456.238 539.424 455.812 539.04C455.385 538.635 455.044 538.155 454.788 537.6C454.553 537.045 454.436 536.416 454.436 535.712C454.436 534.773 454.628 533.995 455.012 533.376C455.396 532.736 455.929 532.235 456.612 531.872C457.316 531.488 458.148 531.221 459.108 531.072C460.089 530.901 461.166 530.816 462.34 530.816C462.638 530.816 462.926 530.816 463.204 530.816C463.502 530.816 463.801 530.837 464.1 530.88C464.164 530.24 464.196 529.664 464.196 529.152C464.196 527.979 463.961 527.157 463.492 526.688C463.022 526.219 462.169 525.984 460.932 525.984C460.569 525.984 460.174 526.016 459.748 526.08C459.342 526.123 458.916 526.197 458.468 526.304C458.041 526.389 457.625 526.507 457.22 526.656C456.836 526.784 456.494 526.933 456.196 527.104L455.396 525.184ZM459.94 538.016C460.537 538.016 461.07 537.941 461.54 537.792C462.009 537.621 462.414 537.419 462.756 537.184C463.097 536.928 463.374 536.651 463.588 536.352C463.822 536.053 463.993 535.765 464.1 535.488V532.832C463.801 532.811 463.492 532.8 463.172 532.8C462.873 532.779 462.574 532.768 462.276 532.768C461.614 532.768 460.964 532.811 460.324 532.896C459.705 532.96 459.15 533.099 458.66 533.312C458.19 533.504 457.806 533.781 457.508 534.144C457.23 534.485 457.092 534.923 457.092 535.456C457.092 536.203 457.358 536.821 457.891 537.312C458.425 537.781 459.108 538.016 459.94 538.016ZM478.567 535.648C478.567 535.008 478.375 534.507 477.991 534.144C477.607 533.781 477.127 533.483 476.551 533.248C475.996 532.992 475.377 532.757 474.695 532.544C474.033 532.309 473.415 532.021 472.839 531.68C472.284 531.317 471.815 530.859 471.431 530.304C471.047 529.749 470.855 529.003 470.855 528.064C470.855 526.528 471.292 525.408 472.167 524.704C473.041 523.979 474.257 523.616 475.815 523.616C476.967 523.616 477.927 523.723 478.695 523.936C479.484 524.128 480.167 524.363 480.743 524.64L480.135 526.752C479.644 526.517 479.047 526.315 478.343 526.144C477.66 525.952 476.924 525.856 476.135 525.856C475.196 525.856 474.503 526.016 474.055 526.336C473.628 526.656 473.415 527.211 473.415 528C473.415 528.555 473.607 528.992 473.991 529.312C474.375 529.611 474.844 529.888 475.399 530.144C475.975 530.379 476.593 530.613 477.255 530.848C477.937 531.083 478.556 531.392 479.111 531.776C479.687 532.16 480.167 532.651 480.551 533.248C480.935 533.824 481.127 534.592 481.127 535.552C481.127 536.235 481.009 536.875 480.775 537.472C480.561 538.069 480.22 538.581 479.751 539.008C479.281 539.435 478.695 539.765 477.991 540C477.308 540.256 476.497 540.384 475.559 540.384C474.343 540.384 473.308 540.267 472.455 540.032C471.601 539.797 470.887 539.52 470.311 539.2L471.079 537.024C471.569 537.301 472.209 537.557 472.999 537.792C473.788 538.027 474.588 538.144 475.399 538.144C476.316 538.144 477.073 537.963 477.671 537.6C478.268 537.237 478.567 536.587 478.567 535.648Z" fill="#667085"/>
<rect y="162" width="595" height="23" fill="#FECDD6"/>
<circle cx="451.5" cy="383.5" r="70.5" fill="#F72532"/>
<path d="M427 425C446.069 411.775 456.798 411.247 476 425C472.103 398.682 432.624 398.756 427 425Z" fill="#8E1920"/>
<path fill-rule="evenodd" clip-rule="evenodd" d="M489.128 354.388C489.232 355.209 488.65 355.96 487.828 356.064C481 357.5 475.522 359.747 471.374 362.076C467.338 364.343 464 366.5 459.724 370.613C459.151 371.211 458.202 371.233 457.603 370.66C457.004 370.088 456.807 369.576 457.556 368.539C460.64 363.576 463.888 359.576 468.671 356.966C473.453 354.356 479.14 352.576 487.451 353.088C488.273 352.984 489.024 353.566 489.128 354.388Z" fill="#8E1920"/>
<ellipse cx="475.07" cy="377" rx="8" ry="12" fill="#8E1920"/>
<path fill-rule="evenodd" clip-rule="evenodd" d="M415.012 354.388C414.908 355.209 415.49 355.96 416.312 356.064C423.14 357.5 428.617 359.747 432.766 362.076C436.802 364.343 440.14 366.5 444.416 370.613C444.988 371.211 445.938 371.233 446.537 370.66C447.136 370.088 447.333 369.576 446.584 368.539C443.5 363.576 440.251 359.576 435.469 356.966C430.687 354.356 425 352.576 416.689 353.088C415.867 352.984 415.116 353.566 415.012 354.388Z" fill="#8E1920"/>
<ellipse rx="8" ry="12" transform="matrix(-1 0 0 1 429.07 377)" fill="#8E1920"/>
<g filter="url(#filter0_d_34_77)">
<path fill-rule="evenodd" clip-rule="evenodd" d="M201.309 383.203C207.847 386.868 212.265 393.864 212.265 401.892C212.265 413.588 202.889 423.093 191.243 423.301V423.304H190.926L190.853 423.304L190.78 423.304H90.485L90.4119 423.304L90.3389 423.304H90.0226V423.301C78.3767 423.093 69 413.588 69 401.892C69 394.138 73.122 387.347 79.2945 383.589C80.6356 373.053 89.6335 364.908 100.534 364.908C100.751 364.908 100.968 364.911 101.184 364.918C103.969 356.326 112.037 350.115 121.557 350.115C126.106 350.115 130.325 351.534 133.793 353.953C137.708 349.68 143.334 347 149.587 347C159.392 347 167.658 353.591 170.196 362.583C173.122 361.083 176.438 360.236 179.953 360.236C191.778 360.236 201.365 369.823 201.365 381.648C201.365 382.171 201.346 382.689 201.309 383.203Z" fill="#B1B1B1"/>
</g>
<g filter="url(#filter1_d_34_77)">
<rect x="465.781" y="630.098" width="54.1329" height="104.305" rx="7" transform="rotate(30 465.781 630.098)" fill="#0ABA66"/>
<rect x="494.773" y="619.303" width="14.5235" height="47.5313" transform="rotate(30 494.773 619.303)" fill="#0ABA66"/>
<rect x="446.637" y="663.258" width="54.1329" height="30.3672" transform="rotate(30 446.637 663.258)" fill="#E6E9E7"/>
<path d="M495.309 610.375C495.585 609.897 496.197 609.733 496.675 610.009L514.381 620.232C514.859 620.508 515.023 621.119 514.747 621.598L511.126 627.87C510.85 628.348 510.238 628.512 509.76 628.236L492.054 618.013C491.575 617.737 491.412 617.125 491.688 616.647L495.309 610.375Z" fill="#755454"/>
<path d="M448.023 684.309L445.341 682.761L443.45 684.357L442.598 683.865L449.618 678.066L450.013 678.294L448.511 687.279L447.607 686.757L448.023 684.309ZM446.054 682.175L448.195 683.411L448.662 680.729L449.038 679.478L449.028 679.472L448.12 680.444L446.054 682.175ZM451.057 687.045C450.917 687.287 450.858 687.485 450.882 687.636C450.905 687.788 450.992 687.908 451.145 687.996C451.235 688.048 451.336 688.097 451.448 688.144C451.56 688.19 451.696 688.227 451.855 688.254L451.571 688.963C451.428 688.954 451.246 688.909 451.025 688.828C450.811 688.751 450.631 688.67 450.486 688.586C450.174 688.406 449.968 688.171 449.867 687.882C449.77 687.586 449.843 687.227 450.087 686.804L453.687 680.569L454.519 681.049L451.057 687.045ZM456.17 691.244C455.874 691.277 455.562 691.249 455.234 691.161C454.902 691.08 454.58 690.95 454.269 690.77C453.867 690.538 453.563 690.279 453.358 689.995C453.157 689.703 453.034 689.387 452.99 689.048C452.957 688.705 452.995 688.344 453.104 687.963C453.224 687.58 453.401 687.184 453.637 686.775C454.145 685.895 454.727 685.335 455.383 685.095C456.043 684.848 456.737 684.934 457.465 685.354C457.797 685.546 458.062 685.736 458.258 685.923C458.466 686.108 458.635 686.303 458.766 686.508L458.113 687.087C458.006 686.905 457.869 686.733 457.703 686.573C457.541 686.405 457.349 686.258 457.128 686.13C456.144 685.562 455.268 685.943 454.5 687.273C454.348 687.536 454.226 687.803 454.135 688.074C454.054 688.341 454.019 688.603 454.029 688.858C454.049 689.11 454.125 689.347 454.255 689.57C454.392 689.797 454.605 689.994 454.896 690.162C455.146 690.306 455.39 690.396 455.628 690.432C455.872 690.472 456.085 690.479 456.266 690.454L456.17 691.244ZM458.083 689.341C458.591 688.462 459.173 687.901 459.829 687.661C460.495 687.418 461.196 687.509 461.93 687.933C462.318 688.157 462.616 688.416 462.825 688.712C463.044 689.005 463.177 689.326 463.224 689.677C463.275 690.02 463.247 690.388 463.141 690.779C463.039 691.164 462.87 691.561 462.634 691.969C462.126 692.849 461.539 693.411 460.872 693.654C460.216 693.894 459.521 693.802 458.786 693.378C458.399 693.154 458.095 692.896 457.876 692.603C457.668 692.307 457.538 691.988 457.487 691.644C457.44 691.294 457.468 690.926 457.57 690.542C457.676 690.15 457.847 689.75 458.083 689.341ZM458.945 689.839C458.793 690.103 458.671 690.37 458.58 690.64C458.495 690.915 458.456 691.174 458.463 691.418C458.47 691.662 458.532 691.892 458.648 692.106C458.764 692.321 458.95 692.503 459.206 692.651C460.145 693.202 461 692.809 461.772 691.471C461.928 691.201 462.048 690.929 462.133 690.654C462.224 690.384 462.267 690.127 462.26 689.882C462.253 689.638 462.189 689.412 462.069 689.204C461.953 688.99 461.767 688.808 461.51 688.66C460.572 688.109 459.717 688.502 458.945 689.839ZM465.781 697.25L467.491 694.288C467.647 694.018 467.766 693.773 467.847 693.552C467.939 693.328 467.982 693.126 467.975 692.947C467.972 692.76 467.917 692.59 467.812 692.437C467.713 692.288 467.55 692.147 467.321 692.015C466.996 691.827 466.639 691.764 466.252 691.827C465.869 691.883 465.543 692.055 465.275 692.344L463.277 695.804L462.445 695.324L466.645 688.05L467.477 688.53L465.941 691.19L465.982 691.214C466.286 691.103 466.599 691.058 466.92 691.077C467.253 691.093 467.606 691.209 467.98 691.425C468.271 691.593 468.504 691.774 468.679 691.967C468.858 692.154 468.968 692.37 469.011 692.616C469.06 692.867 469.034 693.152 468.933 693.472C468.842 693.789 468.673 694.162 468.425 694.592L466.613 697.73L465.781 697.25ZM469.338 695.839C469.846 694.96 470.428 694.4 471.083 694.159C471.75 693.916 472.451 694.007 473.185 694.431C473.573 694.655 473.871 694.914 474.079 695.21C474.298 695.503 474.432 695.824 474.479 696.175C474.53 696.518 474.502 696.886 474.396 697.277C474.294 697.662 474.125 698.059 473.889 698.467C473.381 699.347 472.794 699.909 472.127 700.152C471.471 700.392 470.776 700.3 470.041 699.876C469.653 699.652 469.35 699.394 469.131 699.101C468.923 698.806 468.793 698.486 468.742 698.142C468.695 697.792 468.723 697.424 468.825 697.04C468.931 696.648 469.102 696.248 469.338 695.839ZM470.2 696.337C470.048 696.601 469.926 696.868 469.835 697.138C469.75 697.413 469.711 697.672 469.718 697.916C469.725 698.16 469.787 698.39 469.903 698.604C470.019 698.819 470.205 699.001 470.461 699.149C471.4 699.7 472.255 699.307 473.027 697.969C473.183 697.699 473.303 697.427 473.388 697.152C473.479 696.882 473.521 696.625 473.515 696.38C473.508 696.136 473.444 695.91 473.324 695.702C473.208 695.488 473.022 695.306 472.765 695.158C471.827 694.607 470.972 695 470.2 696.337ZM475.363 701.078C475.223 701.321 475.165 701.518 475.188 701.67C475.211 701.822 475.299 701.942 475.451 702.03C475.541 702.082 475.642 702.131 475.754 702.177C475.866 702.223 476.002 702.26 476.161 702.287L475.877 702.996C475.734 702.987 475.552 702.942 475.331 702.861C475.117 702.784 474.938 702.703 474.792 702.619C474.48 702.439 474.274 702.204 474.173 701.915C474.076 701.619 474.15 701.26 474.394 700.837L477.994 694.602L478.825 695.082L475.363 701.078Z" fill="black"/>
</g>
<g filter="url(#filter2_d_34_77)">
<rect x="135.878" y="740.495" width="56.027" height="4.76825" rx="2" transform="rotate(-45 135.878 740.495)" fill="#C6C6C6"/>
<rect x="132.506" y="700.035" width="3.57619" height="30.9937" transform="rotate(-45 132.506 700.035)" fill="#C6C6C6"/>
<rect x="63.387" y="629.23" width="1.19206" height="30.9937" rx="0.596032" transform="rotate(-45 63.387 629.23)" fill="#B6B5B5"/>
<rect x="71.8162" y="662.947" width="36.954" height="71.5238" rx="4" transform="rotate(-45 71.8162 662.947)" fill="#0CDB78"/>
<rect x="104.69" y="695.821" width="36.954" height="16.6889" transform="rotate(-45 104.69 695.821)" fill="#E6E9E7"/>
</g>
<g filter="url(#filter3_d_34_77)">
<mask id="mask0_34_77" style="mask-type:alpha" maskUnits="userSpaceOnUse" x="91" y="723" width="23" height="23">
<circle cx="102.5" cy="734.5" r="11.5" fill="white"/>
</mask>
<g mask="url(#mask0_34_77)">
<circle cx="102.5" cy="734.5" r="11.5" fill="white"/>
<rect x="94.9497" y="722" width="27" height="7" transform="rotate(45 94.9497 722)" fill="black" fill-opacity="0.05"/>
</g>
</g>
<g filter="url(#filter4_d_34_77)">
<mask id="mask1_34_77" style="mask-type:alpha" maskUnits="userSpaceOnUse" x="57" y="696" width="23" height="23">
<circle cx="68.5" cy="707.5" r="11.5" transform="rotate(90 68.5 707.5)" fill="white"/>
</mask>
<g mask="url(#mask1_34_77)">
<circle cx="68.5" cy="707.5" r="11.5" transform="rotate(90 68.5 707.5)" fill="white"/>
<rect x="81" y="699.95" width="27" height="7" transform="rotate(135 81 699.95)" fill="black" fill-opacity="0.05"/>
</g>
</g>
</g>
<defs>
<filter id="filter0_d_34_77" x="65" y="347" width="151.265" height="84.3044" filterUnits="userSpaceOnUse" color-interpolation-filters="sRGB">
<feFlood flood-opacity="0" result="BackgroundImageFix"/>
<feColorMatrix in="SourceAlpha" type="matrix" values="0 0 0 0 0 0 0 0 0 0 0 0 0 0 0 0 0 0 127 0" result="hardAlpha"/>
<feOffset dy="4"/>
<feGaussianBlur stdDeviation="2"/>
<feComposite in2="hardAlpha" operator="out"/>
<feColorMatrix type="matrix" values="0 0 0 0 0 0 0 0 0 0 0 0 0 0 0 0 0 0 0.25 0"/>
<feBlend mode="normal" in2="BackgroundImageFix" result="effect1_dropShadow_34_77"/>
<feBlend mode="normal" in="SourceGraphic" in2="effect1_dropShadow_34_77" result="shape"/>
</filter>
<filter id="filter1_d_34_77" x="412.19" y="609.875" width="106.691" height="143.059" filterUnits="userSpaceOnUse" color-interpolation-filters="sRGB">
<feFlood flood-opacity="0" result="BackgroundImageFix"/>
<feColorMatrix in="SourceAlpha" type="matrix" values="0 0 0 0 0 0 0 0 0 0 0 0 0 0 0 0 0 0 127 0" result="hardAlpha"/>
<feOffset dy="4"/>
<feGaussianBlur stdDeviation="2"/>
<feComposite in2="hardAlpha" operator="out"/>
<feColorMatrix type="matrix" values="0 0 0 0 0 0 0 0 0 0 0 0 0 0 0 0 0 0 0.25 0"/>
<feBlend mode="normal" in2="BackgroundImageFix" result="effect1_dropShadow_34_77"/>
<feBlend mode="normal" in="SourceGraphic" in2="effect1_dropShadow_34_77" result="shape"/>
</filter>
<filter id="filter2_d_34_77" x="59.6338" y="628.634" width="122.404" height="122.404" filterUnits="userSpaceOnUse" color-interpolation-filters="sRGB">
<feFlood flood-opacity="0" result="BackgroundImageFix"/>
<feColorMatrix in="SourceAlpha" type="matrix" values="0 0 0 0 0 0 0 0 0 0 0 0 0 0 0 0 0 0 127 0" result="hardAlpha"/>
<feOffset dy="4"/>
<feGaussianBlur stdDeviation="2"/>
<feComposite in2="hardAlpha" operator="out"/>
<feColorMatrix type="matrix" values="0 0 0 0 0 0 0 0 0 0 0 0 0 0 0 0 0 0 0.25 0"/>
<feBlend mode="normal" in2="BackgroundImageFix" result="effect1_dropShadow_34_77"/>
<feBlend mode="normal" in="SourceGraphic" in2="effect1_dropShadow_34_77" result="shape"/>
</filter>
<filter id="filter3_d_34_77" x="86" y="719.5" width="33" height="33" filterUnits="userSpaceOnUse" color-interpolation-filters="sRGB">
<feFlood flood-opacity="0" result="BackgroundImageFix"/>
<feColorMatrix in="SourceAlpha" type="matrix" values="0 0 0 0 0 0 0 0 0 0 0 0 0 0 0 0 0 0 127 0" result="hardAlpha"/>
<feOffset dy="1.5"/>
<feGaussianBlur stdDeviation="2.5"/>
<feComposite in2="hardAlpha" operator="out"/>
<feColorMatrix type="matrix" values="0 0 0 0 0 0 0 0 0 0 0 0 0 0 0 0 0 0 0.25 0"/>
<feBlend mode="normal" in2="BackgroundImageFix" result="effect1_dropShadow_34_77"/>
<feBlend mode="normal" in="SourceGraphic" in2="effect1_dropShadow_34_77" result="shape"/>
</filter>
<filter id="filter4_d_34_77" x="53" y="693.5" width="31" height="31" filterUnits="userSpaceOnUse" color-interpolation-filters="sRGB">
<feFlood flood-opacity="0" result="BackgroundImageFix"/>
<feColorMatrix in="SourceAlpha" type="matrix" values="0 0 0 0 0 0 0 0 0 0 0 0 0 0 0 0 0 0 127 0" result="hardAlpha"/>
<feOffset dy="1.5"/>
<feGaussianBlur stdDeviation="2"/>
<feComposite in2="hardAlpha" operator="out"/>
<feColorMatrix type="matrix" values="0 0 0 0 0 0 0 0 0 0 0 0 0 0 0 0 0 0 0.25 0"/>
<feBlend mode="normal" in2="BackgroundImageFix" result="effect1_dropShadow_34_77"/>
<feBlend mode="normal" in="SourceGraphic" in2="effect1_dropShadow_34_77" result="shape"/>
</filter>
<clipPath id="clip0_34_77">
<rect width="595" height="842" fill="white"/>
</clipPath>
</defs>
</svg>
