<svg width="595" height="842" viewBox="0 0 595 842" fill="none" xmlns="http://www.w3.org/2000/svg">
<rect width="595" height="842" fill="#FECDD6"/>
<rect x="412" width="143" height="842" fill="#FEF6FB"/>
<rect x="327" width="69" height="842" fill="#FEF6FB" fill-opacity="0.66"/>
<path d="M477.032 124.168C478.397 124.168 479.507 123.656 480.36 122.632C481.213 121.651 481.981 120.392 482.664 118.856C483.389 117.363 484.115 115.72 484.84 113.928C485.608 112.179 486.525 110.536 487.592 109C488.701 107.507 490.067 106.248 491.688 105.224C493.309 104.243 495.379 103.752 497.896 103.752C500.072 103.752 501.949 104.115 503.528 104.84C505.149 105.565 506.493 106.589 507.56 107.912C508.627 109.277 509.416 110.877 509.928 112.712C510.44 114.547 510.696 116.595 510.696 118.856C510.696 121.459 510.461 123.912 509.992 126.216C509.565 128.52 508.925 130.419 508.072 131.912L500.712 129.16C501.309 128.221 501.843 126.813 502.312 124.936C502.824 123.059 503.08 121.032 503.08 118.856C503.08 116.808 502.675 115.229 501.864 114.12C501.053 113.053 499.965 112.52 498.6 112.52C497.32 112.52 496.253 113.011 495.4 113.992C494.547 115.016 493.757 116.275 493.032 117.768C492.307 119.304 491.56 120.947 490.792 122.696C490.024 124.488 489.085 126.131 487.976 127.624C486.909 129.16 485.565 130.419 483.944 131.4C482.365 132.424 480.381 132.936 477.992 132.936C475.603 132.936 473.533 132.531 471.784 131.72C470.077 130.952 468.648 129.843 467.496 128.392C466.344 126.984 465.491 125.256 464.936 123.208C464.381 121.203 464.104 118.984 464.104 116.552C464.104 113.352 464.403 110.536 465 108.104C465.597 105.672 466.195 103.88 466.792 102.728L474.28 105.544C474.024 106.013 473.747 106.611 473.448 107.336C473.149 108.104 472.872 108.957 472.616 109.896C472.36 110.835 472.147 111.816 471.976 112.84C471.805 113.907 471.72 114.995 471.72 116.104C471.72 118.707 472.147 120.691 473 122.056C473.896 123.464 475.24 124.168 477.032 124.168ZM497 135.257L497 139.673L503.016 139.673L505.384 147.993L497 147.993L497 155.801L489.96 155.801L489.96 147.993L477.672 147.993C475.453 147.993 473.853 148.207 472.872 148.633C471.933 149.103 471.464 149.956 471.464 151.193C471.464 152.047 471.549 152.772 471.72 153.369C471.891 154.009 472.147 154.713 472.488 155.481L466.088 156.953C465.533 155.801 465.064 154.457 464.68 152.921C464.296 151.385 464.104 149.828 464.104 148.249C464.104 145.305 464.851 143.129 466.344 141.721C467.88 140.356 470.376 139.673 473.832 139.673L489.96 139.673L489.96 135.257L497 135.257ZM489.192 178.562C489.661 177.239 489.896 176.045 489.896 174.978C489.896 173.485 489.491 172.226 488.68 171.202C487.912 170.221 486.909 169.559 485.672 169.218L465 169.218L465 160.898L497 160.898L497 167.362L492.776 168.322L492.776 168.578C494.355 169.303 495.571 170.285 496.424 171.522C497.277 172.759 497.704 174.21 497.704 175.874C497.704 176.983 497.469 178.242 497 179.65L489.192 178.562ZM467.752 208.935C466.728 207.655 465.853 205.906 465.128 203.687C464.445 201.511 464.104 199.186 464.104 196.711C464.104 191.549 465.597 187.773 468.584 185.383C471.613 182.994 475.752 181.799 481 181.799C486.632 181.799 490.856 183.143 493.672 185.831C496.488 188.519 497.896 192.295 497.896 197.159C497.896 198.781 497.683 200.359 497.256 201.895C496.829 203.431 496.125 204.797 495.144 205.991C494.163 207.186 492.84 208.146 491.176 208.872C489.512 209.597 487.443 209.959 484.968 209.959C484.072 209.959 483.112 209.895 482.088 209.767C481.064 209.682 479.997 209.533 478.888 209.319L478.888 190.119C476.2 190.247 474.173 190.93 472.808 192.167C471.443 193.447 470.76 195.495 470.76 198.311C470.76 200.061 471.016 201.618 471.528 202.983C472.083 204.391 472.637 205.458 473.192 206.183L467.752 208.935ZM491.24 197.032C491.24 194.855 490.579 193.234 489.256 192.167C487.976 191.143 486.248 190.525 484.072 190.311L484.072 202.215C486.376 202.386 488.147 202.023 489.384 201.127C490.621 200.274 491.24 198.909 491.24 197.032ZM473.832 229.083C474.685 229.083 475.368 228.721 475.88 227.995C476.392 227.27 476.861 226.374 477.288 225.307C477.715 224.241 478.141 223.067 478.568 221.787C479.037 220.507 479.656 219.334 480.424 218.267C481.235 217.201 482.237 216.305 483.432 215.579C484.669 214.854 486.248 214.491 488.168 214.491C491.325 214.491 493.736 215.43 495.4 217.307C497.064 219.185 497.896 221.894 497.896 225.435C497.896 227.867 497.64 230.065 497.128 232.027C496.616 233.99 496.04 235.526 495.4 236.636L489.384 234.779C489.768 233.798 490.173 232.561 490.6 231.067C491.027 229.574 491.24 228.059 491.24 226.523C491.24 224.049 490.28 222.811 488.36 222.811C487.592 222.811 486.973 223.174 486.504 223.899C486.035 224.625 485.587 225.521 485.16 226.587C484.776 227.654 484.349 228.827 483.88 230.107C483.411 231.387 482.792 232.561 482.024 233.627C481.299 234.694 480.339 235.59 479.144 236.315C477.949 237.041 476.413 237.403 474.536 237.403C471.293 237.403 468.733 236.358 466.856 234.267C465.021 232.219 464.104 229.126 464.104 224.987C464.104 222.726 464.403 220.593 465 218.587C465.555 216.625 466.216 215.025 466.984 213.787L473.192 216.091C472.637 217.073 472.083 218.374 471.528 219.995C471.016 221.617 470.76 223.281 470.76 224.987C470.76 226.225 470.995 227.206 471.464 227.931C471.933 228.699 472.723 229.083 473.832 229.083ZM473.832 256.083C474.685 256.083 475.368 255.721 475.88 254.995C476.392 254.27 476.861 253.374 477.288 252.307C477.715 251.241 478.141 250.067 478.568 248.787C479.037 247.507 479.656 246.334 480.424 245.267C481.235 244.201 482.237 243.305 483.432 242.579C484.669 241.854 486.248 241.491 488.168 241.491C491.325 241.491 493.736 242.43 495.4 244.307C497.064 246.185 497.896 248.894 497.896 252.435C497.896 254.867 497.64 257.065 497.128 259.027C496.616 260.99 496.04 262.526 495.4 263.636L489.384 261.779C489.768 260.798 490.173 259.561 490.6 258.067C491.027 256.574 491.24 255.059 491.24 253.523C491.24 251.049 490.28 249.811 488.36 249.811C487.592 249.811 486.973 250.174 486.504 250.899C486.035 251.625 485.587 252.521 485.16 253.587C484.776 254.654 484.349 255.827 483.88 257.107C483.411 258.387 482.792 259.561 482.024 260.627C481.299 261.694 480.339 262.59 479.144 263.315C477.949 264.041 476.413 264.403 474.536 264.403C471.293 264.403 468.733 263.358 466.856 261.267C465.021 259.219 464.104 256.126 464.104 251.987C464.104 249.726 464.403 247.593 465 245.587C465.555 243.625 466.216 242.025 466.984 240.787L473.192 243.091C472.637 244.073 472.083 245.374 471.528 246.995C471.016 248.617 470.76 250.281 470.76 251.987C470.76 253.225 470.995 254.206 471.464 254.931C471.933 255.699 472.723 256.083 473.832 256.083ZM495.144 285.831C495.912 287.538 496.509 289.564 496.936 291.911C497.405 294.258 497.64 296.711 497.64 299.271C497.64 301.49 497.363 303.346 496.808 304.839C496.296 306.332 495.549 307.506 494.568 308.359C493.587 309.255 492.413 309.874 491.048 310.215C489.683 310.599 488.147 310.791 486.44 310.791C484.563 310.791 482.664 310.727 480.744 310.599C478.867 310.471 477.011 310.386 475.176 310.343C473.341 310.343 471.549 310.407 469.8 310.535C468.093 310.663 466.472 310.983 464.936 311.495L464.936 304.711L469.352 303.367L469.352 303.047C468.029 302.194 466.877 300.999 465.896 299.463C464.957 297.97 464.488 296.028 464.488 293.639C464.488 292.146 464.701 290.802 465.128 289.607C465.597 288.412 466.237 287.388 467.048 286.535C467.901 285.682 468.883 285.02 469.992 284.551C471.144 284.082 472.424 283.847 473.832 283.847C475.795 283.847 477.437 284.274 478.76 285.127C480.125 286.023 481.213 287.282 482.024 288.903C482.877 290.567 483.453 292.53 483.752 294.791C484.093 297.095 484.2 299.655 484.072 302.471C486.461 302.77 488.168 302.599 489.192 301.959C490.259 301.319 490.792 299.89 490.792 297.671C490.792 296.007 490.621 294.236 490.28 292.359C489.939 290.524 489.491 289.01 488.936 287.815L495.144 285.831ZM471.336 296.391C471.336 298.055 471.699 299.378 472.424 300.359C473.192 301.34 474.003 302.066 474.856 302.535L479.016 302.535C479.144 301.212 479.165 299.932 479.08 298.695C478.995 297.5 478.803 296.434 478.504 295.495C478.205 294.556 477.779 293.81 477.224 293.255C476.669 292.7 475.965 292.423 475.112 292.423C473.917 292.423 472.979 292.764 472.296 293.447C471.656 294.172 471.336 295.154 471.336 296.391ZM465 335.949L482.408 335.949C485.352 335.949 487.443 335.672 488.68 335.117C489.917 334.562 490.536 333.41 490.536 331.661C490.536 330.21 490.131 329.037 489.32 328.141C488.552 327.245 487.549 326.562 486.312 326.093L465 326.093L465 317.773L497 317.773L497 324.237L492.776 325.197L492.776 325.453C494.141 326.434 495.336 327.672 496.36 329.165C497.384 330.701 497.896 332.664 497.896 335.053C497.896 337.101 497.469 338.765 496.616 340.045C495.805 341.368 494.419 342.392 492.456 343.117C494.12 344.098 495.443 345.357 496.424 346.893C497.405 348.429 497.896 350.285 497.896 352.461C497.896 354.253 497.683 355.768 497.256 357.005C496.829 358.285 496.083 359.309 495.016 360.077C493.992 360.888 492.605 361.485 490.856 361.869C489.107 362.253 486.888 362.445 484.2 362.445L465 362.445L465 354.125L482.984 354.125C485.501 354.125 487.379 353.848 488.616 353.293C489.896 352.781 490.536 351.608 490.536 349.773C490.536 348.28 490.131 347.085 489.32 346.189C488.509 345.336 487.4 344.696 485.992 344.269L465 344.269L465 335.949ZM481 367.737C486.419 367.737 490.579 369.06 493.48 371.705C496.424 374.35 497.896 378.062 497.896 382.841C497.896 385.401 497.491 387.62 496.68 389.497C495.869 391.374 494.717 392.932 493.224 394.169C491.773 395.406 490.003 396.324 487.912 396.921C485.821 397.561 483.517 397.881 481 397.881C475.581 397.881 471.4 396.558 468.456 393.913C465.555 391.31 464.104 387.62 464.104 382.841C464.104 380.281 464.509 378.062 465.32 376.185C466.131 374.308 467.261 372.729 468.712 371.449C470.205 370.212 471.997 369.273 474.088 368.633C476.179 368.036 478.483 367.737 481 367.737ZM481 376.313C479.592 376.313 478.291 376.441 477.096 376.697C475.901 376.953 474.856 377.337 473.96 377.849C473.064 378.361 472.36 379.022 471.848 379.833C471.379 380.686 471.144 381.689 471.144 382.841C471.144 385.017 471.933 386.638 473.512 387.705C475.091 388.772 477.587 389.305 481 389.305C483.944 389.305 486.312 388.814 488.104 387.833C489.939 386.852 490.856 385.188 490.856 382.841C490.856 380.793 490.088 379.193 488.552 378.041C487.016 376.889 484.499 376.313 481 376.313ZM465 423.232L483.176 423.232C485.779 423.232 487.656 422.848 488.808 422.08C489.96 421.355 490.536 420.096 490.536 418.304C490.536 416.725 490.067 415.381 489.128 414.272C488.232 413.205 487.101 412.437 485.736 411.968L465 411.968L465 403.648L497 403.648L497 410.24L492.776 411.2L492.776 411.456C494.141 412.437 495.336 413.739 496.36 415.36C497.384 416.981 497.896 419.072 497.896 421.632C497.896 423.211 497.683 424.619 497.256 425.856C496.829 427.093 496.125 428.139 495.144 428.992C494.163 429.845 492.819 430.485 491.112 430.912C489.448 431.339 487.379 431.552 484.904 431.552L465 431.552L465 423.232ZM465 465.595C460.349 465.595 456.936 464.336 454.76 461.819C452.541 459.302 451.432 455.782 451.432 451.259C451.432 448.187 451.645 445.755 452.072 443.963C452.499 442.214 452.947 440.891 453.416 439.995L460.008 441.723C459.624 442.704 459.24 443.835 458.856 445.115C458.472 446.438 458.28 448.059 458.28 449.979C458.28 452.88 458.92 454.843 460.2 455.867C461.437 456.934 463.187 457.467 465.448 457.467L467.496 457.467L467.496 457.211C465.491 455.718 464.488 453.072 464.488 449.275C464.488 445.136 465.768 442.043 468.328 439.995C470.888 437.99 474.899 436.987 480.36 436.987C486.077 436.987 490.408 438.352 493.352 441.083C496.296 443.814 497.768 447.782 497.768 452.987C497.768 455.718 497.576 458.15 497.192 460.283C496.808 462.459 496.36 464.23 495.848 465.595L465 465.595ZM471.144 451.515C471.144 453.136 471.507 454.374 472.232 455.227C472.957 456.123 474.045 456.806 475.496 457.275L489.896 457.275C490.451 455.952 490.728 454.31 490.728 452.347C490.728 450.214 489.917 448.55 488.296 447.355C486.717 446.16 484.179 445.563 480.68 445.563C477.565 445.563 475.197 446.075 473.576 447.099C471.955 448.123 471.144 449.595 471.144 451.515ZM497 485.695L497 490.111L503.016 490.111L505.384 498.431L497 498.431L497 506.239L489.96 506.239L489.96 498.431L477.672 498.431C475.453 498.431 473.853 498.644 472.872 499.071C471.933 499.54 471.464 500.394 471.464 501.631C471.464 502.484 471.549 503.21 471.72 503.807C471.891 504.447 472.147 505.151 472.488 505.919L466.088 507.391C465.533 506.239 465.064 504.895 464.68 503.359C464.296 501.823 464.104 500.266 464.104 498.687C464.104 495.743 464.851 493.567 466.344 492.159C467.88 490.794 470.376 490.111 473.832 490.111L489.96 490.111L489.96 485.695L497 485.695ZM467.752 536.623C466.728 535.343 465.853 533.594 465.128 531.375C464.445 529.199 464.104 526.874 464.104 524.399C464.104 519.236 465.597 515.46 468.584 513.071C471.613 510.682 475.752 509.487 481 509.487C486.632 509.487 490.856 510.831 493.672 513.519C496.488 516.207 497.896 519.983 497.896 524.847C497.896 526.468 497.683 528.047 497.256 529.583C496.829 531.119 496.125 532.484 495.144 533.679C494.163 534.874 492.84 535.834 491.176 536.559C489.512 537.284 487.443 537.647 484.968 537.647C484.072 537.647 483.112 537.583 482.088 537.455C481.064 537.37 479.997 537.22 478.888 537.007L478.888 517.807C476.2 517.935 474.173 518.618 472.808 519.855C471.443 521.135 470.76 523.183 470.76 525.999C470.76 527.748 471.016 529.306 471.528 530.671C472.083 532.079 472.637 533.146 473.192 533.871L467.752 536.623ZM491.24 524.719C491.24 522.543 490.579 520.922 489.256 519.855C487.976 518.831 486.248 518.212 484.072 517.999L484.072 529.903C486.376 530.074 488.147 529.711 489.384 528.815C490.621 527.962 491.24 526.596 491.24 524.719ZM467.752 568.81C466.728 567.53 465.853 565.781 465.128 563.562C464.445 561.386 464.104 559.061 464.104 556.586C464.104 551.424 465.597 547.648 468.584 545.258C471.613 542.869 475.752 541.674 481 541.674C486.632 541.674 490.856 543.018 493.672 545.706C496.488 548.394 497.896 552.17 497.896 557.034C497.896 558.656 497.683 560.234 497.256 561.77C496.829 563.306 496.125 564.672 495.144 565.866C494.163 567.061 492.84 568.021 491.176 568.747C489.512 569.472 487.443 569.834 484.968 569.834C484.072 569.834 483.112 569.77 482.088 569.642C481.064 569.557 479.997 569.408 478.888 569.194L478.888 549.994C476.2 550.122 474.173 550.805 472.808 552.042C471.443 553.322 470.76 555.37 470.76 558.186C470.76 559.936 471.016 561.493 471.528 562.858C472.083 564.266 472.637 565.333 473.192 566.058L467.752 568.81ZM491.24 556.907C491.24 554.73 490.579 553.109 489.256 552.042C487.976 551.018 486.248 550.4 484.072 550.186L484.072 562.09C486.376 562.261 488.147 561.898 489.384 561.002C490.621 560.149 491.24 558.784 491.24 556.907ZM465 595.294L483.176 595.294C485.779 595.294 487.656 594.91 488.808 594.143C489.96 593.417 490.536 592.158 490.536 590.366C490.536 588.788 490.067 587.444 489.128 586.334C488.232 585.268 487.101 584.5 485.736 584.03L465 584.03L465 575.71L497 575.71L497 582.302L492.776 583.262L492.776 583.518C494.141 584.5 495.336 585.801 496.36 587.422C497.384 589.044 497.896 591.135 497.896 593.695C497.896 595.273 497.683 596.681 497.256 597.918C496.829 599.156 496.125 600.201 495.144 601.054C494.163 601.908 492.819 602.548 491.112 602.974C489.448 603.401 487.379 603.615 484.904 603.614L465 603.614L465 595.294ZM495.144 610.393C495.912 612.1 496.509 614.127 496.936 616.473C497.405 618.82 497.64 621.273 497.64 623.833C497.64 626.052 497.363 627.908 496.808 629.401C496.296 630.895 495.549 632.068 494.568 632.921C493.587 633.817 492.413 634.436 491.048 634.778C489.683 635.162 488.147 635.354 486.44 635.354C484.563 635.354 482.664 635.289 480.744 635.161C478.867 635.033 477.011 634.948 475.176 634.905C473.341 634.905 471.549 634.969 469.8 635.097C468.093 635.225 466.472 635.545 464.936 636.057L464.936 629.273L469.352 627.929L469.352 627.609C468.029 626.756 466.877 625.561 465.896 624.025C464.957 622.532 464.488 620.591 464.488 618.201C464.488 616.708 464.701 615.364 465.128 614.169C465.597 612.975 466.237 611.951 467.048 611.097C467.901 610.244 468.883 609.583 469.992 609.113C471.144 608.644 472.424 608.409 473.832 608.409C475.795 608.409 477.437 608.836 478.76 609.689C480.125 610.585 481.213 611.844 482.024 613.465C482.877 615.129 483.453 617.092 483.752 619.353C484.093 621.657 484.2 624.217 484.072 627.033C486.461 627.332 488.168 627.161 489.192 626.521C490.259 625.881 490.792 624.452 490.792 622.233C490.792 620.569 490.621 618.799 490.28 616.921C489.939 615.087 489.491 613.572 488.936 612.377L495.144 610.393ZM471.336 620.953C471.336 622.617 471.699 623.94 472.424 624.921C473.192 625.903 474.003 626.628 474.856 627.097L479.016 627.097C479.144 625.775 479.165 624.495 479.08 623.257C478.995 622.063 478.803 620.996 478.504 620.057C478.205 619.119 477.779 618.372 477.224 617.817C476.669 617.263 475.965 616.985 475.112 616.985C473.917 616.985 472.979 617.327 472.296 618.009C471.656 618.735 471.336 619.716 471.336 620.953ZM465 669.407C460.349 669.407 456.936 668.149 454.76 665.631C452.541 663.114 451.432 659.594 451.432 655.071C451.432 651.999 451.645 649.567 452.072 647.775C452.499 646.026 452.947 644.703 453.416 643.807L460.008 645.535C459.624 646.517 459.24 647.647 458.856 648.927C458.472 650.25 458.28 651.871 458.28 653.791C458.28 656.693 458.92 658.655 460.2 659.679C461.437 660.746 463.187 661.279 465.448 661.279L467.496 661.279L467.496 661.023C465.491 659.53 464.488 656.885 464.488 653.087C464.488 648.949 465.768 645.855 468.328 643.807C470.888 641.802 474.899 640.799 480.36 640.799C486.077 640.799 490.408 642.165 493.352 644.895C496.296 647.626 497.768 651.594 497.768 656.8C497.768 659.53 497.576 661.962 497.192 664.095C496.808 666.271 496.36 668.042 495.848 669.407L465 669.407ZM471.144 655.327C471.144 656.949 471.507 658.186 472.232 659.039C472.957 659.935 474.045 660.618 475.496 661.087L489.896 661.087C490.451 659.765 490.728 658.122 490.728 656.159C490.728 654.026 489.917 652.362 488.296 651.167C486.717 649.973 484.179 649.375 480.68 649.375C477.565 649.375 475.197 649.887 473.576 650.911C471.955 651.935 471.144 653.407 471.144 655.327ZM467.752 702.248C466.728 700.968 465.853 699.219 465.128 697C464.445 694.824 464.104 692.499 464.104 690.024C464.104 684.861 465.597 681.085 468.584 678.696C471.613 676.307 475.752 675.112 481 675.112C486.632 675.112 490.856 676.456 493.672 679.144C496.488 681.832 497.896 685.608 497.896 690.472C497.896 692.093 497.683 693.672 497.256 695.208C496.829 696.744 496.125 698.109 495.144 699.304C494.163 700.499 492.84 701.459 491.176 702.184C489.512 702.909 487.443 703.272 484.968 703.272C484.072 703.272 483.112 703.208 482.088 703.08C481.064 702.995 479.997 702.845 478.888 702.632L478.888 683.432C476.2 683.56 474.173 684.243 472.808 685.48C471.443 686.76 470.76 688.808 470.76 691.624C470.76 693.373 471.016 694.931 471.528 696.296C472.083 697.704 472.637 698.771 473.192 699.496L467.752 702.248ZM491.24 690.344C491.24 688.168 490.579 686.547 489.256 685.48C487.976 684.456 486.248 683.837 484.072 683.624L484.072 695.528C486.376 695.699 488.147 695.336 489.384 694.44C490.621 693.587 491.24 692.221 491.24 690.344ZM489.192 726.812C489.661 725.489 489.896 724.295 489.896 723.228C489.896 721.735 489.491 720.476 488.68 719.452C487.912 718.471 486.909 717.809 485.672 717.468L465 717.468L465 709.148L497 709.148L497 715.612L492.776 716.572L492.776 716.828C494.355 717.553 495.571 718.535 496.424 719.772C497.277 721.009 497.704 722.46 497.704 724.124C497.704 725.233 497.469 726.492 497 727.9L489.192 726.812ZM473.832 744.833C474.685 744.833 475.368 744.471 475.88 743.745C476.392 743.02 476.861 742.124 477.288 741.057C477.715 739.991 478.141 738.817 478.568 737.537C479.037 736.257 479.656 735.084 480.424 734.017C481.235 732.951 482.237 732.055 483.432 731.329C484.669 730.604 486.248 730.241 488.168 730.241C491.325 730.241 493.736 731.18 495.4 733.057C497.064 734.935 497.896 737.644 497.896 741.185C497.896 743.617 497.64 745.815 497.128 747.777C496.616 749.74 496.04 751.276 495.4 752.386L489.384 750.529C489.768 749.548 490.173 748.311 490.6 746.817C491.027 745.324 491.24 743.809 491.24 742.273C491.24 739.799 490.28 738.561 488.36 738.561C487.592 738.561 486.973 738.924 486.504 739.649C486.035 740.375 485.587 741.271 485.16 742.337C484.776 743.404 484.349 744.577 483.88 745.857C483.411 747.137 482.792 748.311 482.024 749.377C481.299 750.444 480.339 751.34 479.144 752.065C477.949 752.791 476.413 753.153 474.536 753.153C471.293 753.153 468.733 752.108 466.856 750.017C465.021 747.969 464.104 744.876 464.104 740.737C464.104 738.476 464.403 736.343 465 734.337C465.555 732.375 466.216 730.775 466.984 729.537L473.192 731.841C472.637 732.823 472.083 734.124 471.528 735.745C471.016 737.367 470.76 739.031 470.76 740.737C470.76 741.975 470.995 742.956 471.464 743.681C471.933 744.449 472.723 744.833 473.832 744.833Z" fill="#667085"/>
<path d="M373.544 141.328L370.76 141.712L370.76 141.736L373.592 142.144L384.8 145.6L384.8 146.56L373.544 150.04L370.76 150.448L370.76 150.472L373.592 150.904L384.8 153.736L384.8 155.68L367.736 151L367.736 149.896L378.992 146.488L381.536 146.056L381.536 145.936L378.968 145.504L367.736 142.096L367.736 140.992L384.8 136.192L384.8 138.304L373.544 141.328ZM368 165.427L374.84 165.427C375.464 165.427 376.008 165.387 376.472 165.307C376.952 165.243 377.344 165.115 377.648 164.923C377.968 164.731 378.208 164.467 378.368 164.131C378.528 163.811 378.608 163.387 378.608 162.859C378.608 162.107 378.36 161.427 377.864 160.819C377.384 160.211 376.76 159.819 375.992 159.643L368 159.643L368 157.723L384.8 157.723L384.8 159.643L378.656 159.643L378.656 159.739C379.152 160.155 379.544 160.651 379.832 161.227C380.136 161.819 380.288 162.547 380.288 163.411C380.288 164.083 380.208 164.667 380.048 165.163C379.904 165.659 379.64 166.067 379.256 166.387C378.872 166.723 378.352 166.963 377.696 167.107C377.056 167.267 376.24 167.347 375.248 167.347L368 167.347L368 165.427ZM379.112 170.656C379.48 171.264 379.752 171.968 379.928 172.768C380.104 173.584 380.192 174.432 380.192 175.312C380.192 176.144 380.08 176.808 379.856 177.304C379.632 177.816 379.336 178.2 378.968 178.456C378.616 178.728 378.224 178.904 377.792 178.984C377.36 179.08 376.928 179.128 376.496 179.128C375.536 179.128 374.6 179.104 373.688 179.056C372.776 179.008 371.912 178.984 371.096 178.984C370.504 178.984 369.944 179.008 369.416 179.056C368.888 179.104 368.4 179.192 367.952 179.32L367.952 177.904L369.632 177.4L369.632 177.28C369.408 177.136 369.184 176.952 368.96 176.728C368.752 176.52 368.56 176.264 368.384 175.96C368.224 175.656 368.088 175.304 367.976 174.904C367.864 174.504 367.808 174.048 367.808 173.536C367.808 173.024 367.888 172.544 368.048 172.096C368.208 171.664 368.432 171.288 368.72 170.968C369.024 170.648 369.384 170.392 369.8 170.2C370.216 170.024 370.688 169.936 371.216 169.936C371.92 169.936 372.504 170.08 372.968 170.368C373.448 170.656 373.824 171.056 374.096 171.568C374.384 172.096 374.584 172.72 374.696 173.44C374.824 174.176 374.888 174.984 374.888 175.864C374.888 176.088 374.888 176.304 374.888 176.512C374.888 176.736 374.872 176.96 374.84 177.184C375.32 177.232 375.752 177.256 376.136 177.256C377.016 177.256 377.632 177.08 377.984 176.728C378.336 176.376 378.512 175.736 378.512 174.808C378.512 174.536 378.488 174.24 378.44 173.92C378.408 173.616 378.352 173.296 378.272 172.96C378.208 172.64 378.12 172.328 378.008 172.024C377.912 171.736 377.8 171.48 377.672 171.256L379.112 170.656ZM369.488 174.064C369.488 174.512 369.544 174.912 369.656 175.264C369.784 175.616 369.936 175.92 370.112 176.176C370.304 176.432 370.512 176.64 370.736 176.8C370.96 176.976 371.176 177.104 371.384 177.184L373.376 177.184C373.392 176.96 373.4 176.728 373.4 176.488C373.416 176.264 373.424 176.04 373.424 175.816C373.424 175.32 373.392 174.832 373.328 174.352C373.28 173.888 373.176 173.472 373.016 173.104C372.872 172.752 372.664 172.464 372.392 172.24C372.136 172.032 371.808 171.928 371.408 171.928C370.848 171.928 370.384 172.128 370.016 172.528C369.664 172.928 369.488 173.44 369.488 174.064ZM380 181.17L380 183.042L382.376 183.042L382.928 184.962L380 184.962L380 188.226L378.32 188.226L378.32 184.962L371.672 184.962C370.84 184.962 370.248 185.066 369.896 185.274C369.56 185.482 369.392 185.834 369.392 186.33C369.392 186.746 369.432 187.098 369.512 187.386C369.608 187.674 369.728 187.994 369.872 188.346L368.408 188.778C368.2 188.346 368.032 187.874 367.904 187.362C367.776 186.85 367.712 186.298 367.712 185.706C367.712 184.73 367.984 184.042 368.528 183.642C369.088 183.242 370.016 183.042 371.312 183.042L378.32 183.042L378.32 181.17L380 181.17ZM368.792 205.469C368.44 204.989 368.176 204.421 368 203.765C367.808 203.109 367.712 202.421 367.712 201.701C367.712 200.773 367.856 199.989 368.144 199.349C368.448 198.709 368.872 198.181 369.416 197.765C369.976 197.365 370.64 197.069 371.408 196.877C372.192 196.701 373.056 196.613 374 196.613C376.032 196.613 377.584 197.061 378.656 197.957C379.744 198.853 380.288 200.141 380.288 201.821C380.288 202.589 380.224 203.237 380.096 203.765C379.984 204.309 379.816 204.797 379.592 205.229L377.936 204.677C378.144 204.309 378.304 203.901 378.416 203.453C378.544 203.005 378.608 202.525 378.608 202.013C378.608 199.741 377.072 198.605 374 198.605C373.392 198.605 372.808 198.661 372.248 198.773C371.704 198.901 371.216 199.101 370.784 199.373C370.368 199.661 370.032 200.029 369.776 200.477C369.52 200.941 369.392 201.509 369.392 202.181C369.392 202.757 369.48 203.269 369.656 203.717C369.832 204.181 370.032 204.557 370.256 204.845L368.792 205.469ZM379.112 207.922C379.48 208.53 379.752 209.234 379.928 210.034C380.104 210.85 380.192 211.698 380.192 212.578C380.192 213.41 380.08 214.074 379.856 214.57C379.632 215.082 379.336 215.466 378.968 215.722C378.616 215.994 378.224 216.17 377.792 216.25C377.36 216.346 376.928 216.394 376.496 216.394C375.536 216.394 374.6 216.37 373.688 216.322C372.776 216.274 371.912 216.25 371.096 216.25C370.504 216.25 369.944 216.274 369.416 216.322C368.888 216.37 368.4 216.458 367.952 216.586L367.952 215.17L369.632 214.666L369.632 214.546C369.408 214.402 369.184 214.218 368.96 213.994C368.752 213.786 368.56 213.53 368.384 213.226C368.224 212.922 368.088 212.57 367.976 212.17C367.864 211.77 367.808 211.314 367.808 210.802C367.808 210.29 367.888 209.81 368.048 209.362C368.208 208.93 368.432 208.554 368.72 208.234C369.024 207.914 369.384 207.658 369.8 207.466C370.216 207.29 370.688 207.202 371.216 207.202C371.92 207.202 372.504 207.346 372.968 207.634C373.448 207.922 373.824 208.322 374.096 208.834C374.384 209.362 374.584 209.986 374.696 210.706C374.824 211.442 374.888 212.25 374.888 213.13C374.888 213.354 374.888 213.57 374.888 213.778C374.888 214.002 374.872 214.226 374.84 214.45C375.32 214.498 375.752 214.522 376.136 214.522C377.016 214.522 377.632 214.346 377.984 213.994C378.336 213.642 378.512 213.002 378.512 212.074C378.512 211.802 378.488 211.506 378.44 211.186C378.408 210.882 378.352 210.562 378.272 210.226C378.208 209.906 378.12 209.594 378.008 209.29C377.912 209.002 377.8 208.746 377.672 208.522L379.112 207.922ZM369.488 211.33C369.488 211.778 369.544 212.178 369.656 212.53C369.784 212.882 369.936 213.186 370.112 213.442C370.304 213.698 370.512 213.906 370.736 214.066C370.96 214.242 371.176 214.37 371.384 214.45L373.376 214.45C373.392 214.226 373.4 213.994 373.4 213.754C373.416 213.53 373.424 213.306 373.424 213.082C373.424 212.586 373.392 212.098 373.328 211.618C373.28 211.154 373.176 210.738 373.016 210.37C372.872 210.018 372.664 209.73 372.392 209.506C372.136 209.298 371.808 209.194 371.408 209.194C370.848 209.194 370.384 209.394 370.016 209.794C369.664 210.194 369.488 210.706 369.488 211.33ZM374 219.348C376.032 219.348 377.584 219.796 378.656 220.692C379.744 221.604 380.288 222.908 380.288 224.604C380.288 225.5 380.136 226.276 379.832 226.932C379.544 227.604 379.12 228.156 378.56 228.588C378.016 229.02 377.352 229.34 376.568 229.548C375.8 229.756 374.944 229.86 374 229.86C371.968 229.86 370.408 229.404 369.32 228.492C368.248 227.596 367.712 226.3 367.712 224.604C367.712 223.708 367.856 222.924 368.144 222.252C368.448 221.596 368.872 221.052 369.416 220.62C369.976 220.188 370.64 219.868 371.408 219.66C372.192 219.452 373.056 219.348 374 219.348ZM374 221.34C373.392 221.34 372.808 221.396 372.248 221.508C371.688 221.636 371.2 221.828 370.784 222.084C370.368 222.34 370.032 222.676 369.776 223.092C369.52 223.508 369.392 224.012 369.392 224.604C369.376 226.78 370.912 227.868 374 227.868C374.624 227.868 375.216 227.804 375.776 227.676C376.336 227.564 376.824 227.38 377.24 227.124C377.656 226.868 377.984 226.532 378.224 226.116C378.48 225.7 378.608 225.196 378.608 224.604C378.624 222.428 377.088 221.34 374 221.34ZM380 234.615L373.16 234.615C372.536 234.615 371.984 234.647 371.504 234.711C371.04 234.791 370.648 234.919 370.328 235.095C370.024 235.271 369.792 235.511 369.632 235.815C369.472 236.119 369.392 236.503 369.392 236.967C369.392 237.399 369.456 237.783 369.584 238.119C369.728 238.455 369.92 238.751 370.16 239.007C370.4 239.279 370.672 239.511 370.976 239.703C371.296 239.911 371.632 240.079 371.984 240.207L380 240.207L380 242.127L371.408 242.127C370.832 242.127 370.232 242.143 369.608 242.175C369 242.223 368.464 242.295 368 242.391L368 241.071L369.896 240.591L369.896 240.471C369.272 240.103 368.752 239.607 368.336 238.983C367.92 238.359 367.712 237.567 367.712 236.607C367.712 235.967 367.792 235.399 367.952 234.903C368.096 234.423 368.36 234.015 368.744 233.679C369.128 233.359 369.64 233.111 370.28 232.935C370.936 232.775 371.76 232.695 372.752 232.695L380 232.695L380 234.615ZM371.264 251.105C371.744 251.105 372.12 250.961 372.392 250.673C372.664 250.385 372.888 250.025 373.064 249.593C373.256 249.177 373.432 248.713 373.592 248.201C373.768 247.705 373.984 247.241 374.24 246.809C374.512 246.393 374.856 246.041 375.272 245.753C375.688 245.465 376.248 245.321 376.952 245.321C378.104 245.321 378.944 245.649 379.472 246.305C380.016 246.961 380.288 247.873 380.288 249.041C380.288 249.905 380.208 250.625 380.048 251.201C379.904 251.793 379.728 252.305 379.52 252.737L377.936 252.281C378.112 251.913 378.264 251.465 378.392 250.937C378.536 250.425 378.608 249.873 378.608 249.281C378.608 248.577 378.488 248.057 378.248 247.721C378.008 247.401 377.592 247.241 377 247.241C376.584 247.241 376.256 247.385 376.016 247.673C375.792 247.961 375.584 248.313 375.392 248.729C375.216 249.161 375.04 249.625 374.864 250.121C374.688 250.633 374.456 251.097 374.168 251.513C373.88 251.945 373.512 252.305 373.064 252.593C372.632 252.881 372.056 253.025 371.336 253.025C370.824 253.025 370.344 252.937 369.896 252.761C369.448 252.601 369.064 252.345 368.744 251.993C368.424 251.641 368.176 251.201 368 250.673C367.808 250.161 367.712 249.553 367.712 248.849C367.712 247.937 367.8 247.161 367.976 246.521C368.152 245.881 368.36 245.345 368.6 244.913L370.232 245.489C370.024 245.857 369.832 246.337 369.656 246.929C369.48 247.521 369.392 248.121 369.392 248.729C369.392 249.417 369.528 249.985 369.8 250.433C370.072 250.881 370.56 251.105 371.264 251.105ZM368.96 264.686C368.576 264.206 368.272 263.598 368.048 262.862C367.824 262.142 367.712 261.374 367.712 260.558C367.712 259.646 367.856 258.854 368.144 258.182C368.448 257.51 368.872 256.958 369.416 256.526C369.976 256.094 370.64 255.774 371.408 255.566C372.176 255.358 373.04 255.254 374 255.254C376.048 255.254 377.608 255.71 378.68 256.622C379.752 257.534 380.288 258.838 380.288 260.534C380.288 261.078 380.224 261.622 380.096 262.166C379.984 262.71 379.76 263.198 379.424 263.63C379.088 264.062 378.608 264.414 377.984 264.686C377.376 264.958 376.568 265.094 375.56 265.094C375.032 265.094 374.448 265.046 373.808 264.95L373.808 257.246C373.104 257.246 372.48 257.318 371.936 257.462C371.392 257.606 370.928 257.83 370.544 258.134C370.176 258.438 369.888 258.83 369.68 259.31C369.488 259.806 369.392 260.406 369.392 261.11C369.392 261.654 369.488 262.198 369.68 262.742C369.872 263.286 370.096 263.694 370.352 263.966L368.96 264.686ZM378.608 260.558C378.608 259.614 378.36 258.854 377.864 258.278C377.368 257.718 376.52 257.382 375.32 257.27L375.32 263.222C376.536 263.222 377.384 262.99 377.864 262.526C378.36 262.062 378.608 261.406 378.608 260.558ZM371.264 273.394C371.744 273.394 372.12 273.25 372.392 272.962C372.664 272.674 372.888 272.314 373.064 271.882C373.256 271.466 373.432 271.002 373.592 270.49C373.768 269.994 373.984 269.53 374.24 269.098C374.512 268.682 374.856 268.33 375.272 268.042C375.688 267.754 376.248 267.61 376.952 267.61C378.104 267.61 378.944 267.938 379.472 268.594C380.016 269.25 380.288 270.162 380.288 271.33C380.288 272.194 380.208 272.914 380.048 273.49C379.904 274.082 379.728 274.594 379.52 275.026L377.936 274.57C378.112 274.202 378.264 273.754 378.392 273.226C378.536 272.714 378.608 272.162 378.608 271.57C378.608 270.866 378.488 270.346 378.248 270.01C378.008 269.69 377.592 269.53 377 269.53C376.584 269.53 376.256 269.674 376.016 269.962C375.792 270.25 375.584 270.602 375.392 271.018C375.216 271.45 375.04 271.914 374.864 272.41C374.688 272.922 374.456 273.386 374.168 273.802C373.88 274.234 373.512 274.594 373.064 274.882C372.632 275.17 372.056 275.314 371.336 275.314C370.824 275.314 370.344 275.226 369.896 275.05C369.448 274.89 369.064 274.634 368.744 274.282C368.424 273.93 368.176 273.49 368 272.962C367.808 272.45 367.712 271.842 367.712 271.138C367.712 270.226 367.8 269.45 367.976 268.81C368.152 268.17 368.36 267.634 368.6 267.202L370.232 267.778C370.024 268.146 369.832 268.626 369.656 269.218C369.48 269.81 369.392 270.41 369.392 271.018C369.392 271.706 369.528 272.274 369.8 272.722C370.072 273.17 370.56 273.394 371.264 273.394ZM380 283.03L380 284.902L382.376 284.902L382.928 286.822L380 286.822L380 290.086L378.32 290.086L378.32 286.822L371.672 286.822C370.84 286.822 370.248 286.926 369.896 287.134C369.56 287.342 369.392 287.694 369.392 288.19C369.392 288.606 369.432 288.958 369.512 289.246C369.608 289.534 369.728 289.854 369.872 290.206L368.408 290.638C368.2 290.206 368.032 289.734 367.904 289.222C367.776 288.71 367.712 288.158 367.712 287.566C367.712 286.59 367.984 285.902 368.528 285.502C369.088 285.102 370.016 284.902 371.312 284.902L378.32 284.902L378.32 283.03L380 283.03ZM368.96 301.249C368.576 300.769 368.272 300.161 368.048 299.425C367.824 298.705 367.712 297.937 367.712 297.121C367.712 296.209 367.856 295.417 368.144 294.745C368.448 294.073 368.872 293.521 369.416 293.089C369.976 292.657 370.64 292.337 371.408 292.129C372.176 291.921 373.04 291.817 374 291.817C376.048 291.817 377.608 292.273 378.68 293.185C379.752 294.097 380.288 295.401 380.288 297.097C380.288 297.641 380.224 298.185 380.096 298.729C379.984 299.273 379.76 299.761 379.424 300.193C379.088 300.625 378.608 300.977 377.984 301.249C377.376 301.521 376.568 301.657 375.56 301.657C375.032 301.657 374.448 301.609 373.808 301.513L373.808 293.809C373.104 293.809 372.48 293.881 371.936 294.025C371.392 294.169 370.928 294.393 370.544 294.697C370.176 295.001 369.888 295.393 369.68 295.873C369.488 296.369 369.392 296.969 369.392 297.673C369.392 298.217 369.488 298.761 369.68 299.305C369.872 299.849 370.096 300.257 370.352 300.529L368.96 301.249ZM378.608 297.121C378.608 296.177 378.36 295.417 377.864 294.841C377.368 294.281 376.52 293.945 375.32 293.833L375.32 299.785C376.536 299.785 377.384 299.553 377.864 299.089C378.36 298.625 378.608 297.969 378.608 297.121ZM368.96 313.178C368.576 312.698 368.272 312.09 368.048 311.354C367.824 310.634 367.712 309.866 367.712 309.05C367.712 308.138 367.856 307.346 368.144 306.674C368.448 306.002 368.872 305.45 369.416 305.018C369.976 304.586 370.64 304.266 371.408 304.058C372.176 303.85 373.04 303.746 374 303.746C376.048 303.746 377.608 304.202 378.68 305.114C379.752 306.026 380.288 307.33 380.288 309.026C380.288 309.57 380.224 310.114 380.096 310.658C379.984 311.202 379.76 311.69 379.424 312.122C379.088 312.554 378.608 312.906 377.984 313.178C377.376 313.45 376.568 313.586 375.56 313.586C375.032 313.586 374.448 313.538 373.808 313.442L373.808 305.738C373.104 305.738 372.48 305.81 371.936 305.954C371.392 306.098 370.928 306.322 370.544 306.626C370.176 306.93 369.888 307.322 369.68 307.802C369.488 308.298 369.392 308.898 369.392 309.602C369.392 310.146 369.488 310.69 369.68 311.234C369.872 311.778 370.096 312.186 370.352 312.458L368.96 313.178ZM378.608 309.05C378.608 308.106 378.36 307.346 377.864 306.77C377.368 306.21 376.52 305.874 375.32 305.762L375.32 311.714C376.536 311.714 377.384 311.482 377.864 311.018C378.36 310.554 378.608 309.898 378.608 309.05ZM368 324.31L374.84 324.31C376.088 324.31 377.024 324.126 377.648 323.758C378.288 323.406 378.608 322.75 378.608 321.79C378.608 320.942 378.376 320.238 377.912 319.678C377.464 319.134 376.896 318.75 376.208 318.526L368 318.526L368 316.606L380 316.606L380 317.95L378.536 318.31L378.536 318.406C379.048 318.79 379.464 319.302 379.784 319.942C380.12 320.598 380.288 321.374 380.288 322.27C380.288 322.926 380.208 323.502 380.048 323.998C379.904 324.494 379.64 324.902 379.256 325.222C378.872 325.558 378.352 325.806 377.696 325.966C377.056 326.142 376.24 326.23 375.248 326.23L368 326.23L368 324.31ZM367.448 338.923C365.896 338.923 364.752 338.507 364.016 337.675C363.28 336.859 362.912 335.643 362.912 334.027C362.912 333.067 362.976 332.291 363.104 331.699C363.216 331.123 363.368 330.627 363.56 330.211L365.192 330.715C365.048 331.083 364.912 331.491 364.784 331.939C364.656 332.387 364.592 332.971 364.592 333.691C364.592 334.363 364.656 334.907 364.784 335.323C364.896 335.755 365.096 336.099 365.384 336.355C365.656 336.611 366.016 336.787 366.464 336.883C366.896 336.979 367.416 337.027 368.024 337.027L369.176 337.027L369.176 336.931C368.712 336.611 368.352 336.203 368.096 335.707C367.856 335.211 367.736 334.563 367.736 333.763C367.736 332.147 368.24 330.955 369.248 330.187C370.256 329.435 371.824 329.059 373.952 329.059C376 329.059 377.552 329.547 378.608 330.523C379.68 331.499 380.216 332.939 380.216 334.843C380.216 335.755 380.144 336.531 380 337.171C379.856 337.827 379.688 338.411 379.496 338.923L367.448 338.923ZM369.416 334.099C369.416 334.915 369.616 335.555 370.016 336.019C370.432 336.483 371.072 336.811 371.936 337.003L378.08 337.003C378.384 336.363 378.536 335.547 378.536 334.555C378.536 333.467 378.168 332.611 377.432 331.987C376.696 331.363 375.544 331.051 373.976 331.051C373.304 331.051 372.688 331.107 372.128 331.219C371.568 331.331 371.088 331.507 370.688 331.747C370.288 331.987 369.976 332.299 369.752 332.683C369.528 333.067 369.416 333.539 369.416 334.099ZM368.96 351.381C368.576 350.901 368.272 350.293 368.048 349.557C367.824 348.837 367.712 348.069 367.712 347.253C367.712 346.341 367.856 345.549 368.144 344.877C368.448 344.205 368.872 343.653 369.416 343.221C369.976 342.789 370.64 342.469 371.408 342.261C372.176 342.053 373.04 341.949 374 341.949C376.048 341.949 377.608 342.405 378.68 343.317C379.752 344.229 380.288 345.533 380.288 347.229C380.288 347.773 380.224 348.317 380.096 348.861C379.984 349.405 379.76 349.893 379.424 350.325C379.088 350.757 378.608 351.109 377.984 351.381C377.376 351.653 376.568 351.789 375.56 351.789C375.032 351.789 374.448 351.741 373.808 351.645L373.808 343.941C373.104 343.941 372.48 344.013 371.936 344.157C371.392 344.301 370.928 344.525 370.544 344.829C370.176 345.133 369.888 345.525 369.68 346.005C369.488 346.501 369.392 347.101 369.392 347.805C369.392 348.349 369.488 348.893 369.68 349.437C369.872 349.981 370.096 350.389 370.352 350.661L368.96 351.381ZM378.608 347.253C378.608 346.309 378.36 345.549 377.864 344.973C377.368 344.413 376.52 344.077 375.32 343.965L375.32 349.917C376.536 349.917 377.384 349.685 377.864 349.221C378.36 348.757 378.608 348.101 378.608 347.253ZM378.152 360.473C378.312 359.993 378.392 359.537 378.392 359.105C378.392 358.417 378.2 357.873 377.816 357.473C377.448 357.073 376.976 356.825 376.4 356.729L368 356.729L368 354.809L380 354.809L380 356.153L378.536 356.513L378.536 356.609C379.08 356.913 379.496 357.273 379.784 357.689C380.088 358.121 380.24 358.665 380.24 359.321C380.24 359.785 380.16 360.305 380 360.881L378.152 360.473ZM371.264 368.245C371.744 368.245 372.12 368.101 372.392 367.813C372.664 367.525 372.888 367.165 373.064 366.733C373.256 366.317 373.432 365.853 373.592 365.341C373.768 364.845 373.984 364.381 374.24 363.949C374.512 363.533 374.856 363.181 375.272 362.893C375.688 362.605 376.248 362.461 376.952 362.461C378.104 362.461 378.944 362.789 379.472 363.445C380.016 364.101 380.288 365.013 380.288 366.181C380.288 367.045 380.208 367.765 380.048 368.341C379.904 368.933 379.728 369.445 379.52 369.877L377.936 369.421C378.112 369.053 378.264 368.605 378.392 368.077C378.536 367.565 378.608 367.013 378.608 366.421C378.608 365.717 378.488 365.197 378.248 364.861C378.008 364.541 377.592 364.381 377 364.381C376.584 364.381 376.256 364.525 376.016 364.813C375.792 365.101 375.584 365.453 375.392 365.869C375.216 366.301 375.04 366.765 374.864 367.261C374.688 367.773 374.456 368.237 374.168 368.653C373.88 369.085 373.512 369.445 373.064 369.733C372.632 370.021 372.056 370.165 371.336 370.165C370.824 370.165 370.344 370.077 369.896 369.901C369.448 369.741 369.064 369.485 368.744 369.133C368.424 368.781 368.176 368.341 368 367.813C367.808 367.301 367.712 366.693 367.712 365.989C367.712 365.077 367.8 364.301 367.976 363.661C368.152 363.021 368.36 362.485 368.6 362.053L370.232 362.629C370.024 362.997 369.832 363.477 369.656 364.069C369.48 364.661 369.392 365.261 369.392 365.869C369.392 366.557 369.528 367.125 369.8 367.573C370.072 368.021 370.56 368.245 371.264 368.245ZM380 377.881L380 379.753L382.376 379.753L382.928 381.673L380 381.673L380 384.937L378.32 384.937L378.32 381.673L371.672 381.673C370.84 381.673 370.248 381.777 369.896 381.985C369.56 382.193 369.392 382.545 369.392 383.041C369.392 383.457 369.432 383.809 369.512 384.097C369.608 384.385 369.728 384.705 369.872 385.057L368.408 385.489C368.2 385.057 368.032 384.585 367.904 384.073C367.776 383.561 367.712 383.009 367.712 382.417C367.712 381.441 367.984 380.753 368.528 380.353C369.088 379.953 370.016 379.753 371.312 379.753L378.32 379.753L378.32 377.881L380 377.881ZM374 386.668C376.032 386.668 377.584 387.116 378.656 388.012C379.744 388.924 380.288 390.228 380.288 391.924C380.288 392.82 380.136 393.596 379.832 394.252C379.544 394.924 379.12 395.476 378.56 395.908C378.016 396.34 377.352 396.66 376.568 396.868C375.8 397.076 374.944 397.18 374 397.18C371.968 397.18 370.408 396.724 369.32 395.812C368.248 394.916 367.712 393.62 367.712 391.924C367.712 391.028 367.856 390.244 368.144 389.572C368.448 388.916 368.872 388.372 369.416 387.94C369.976 387.508 370.64 387.188 371.408 386.98C372.192 386.772 373.056 386.668 374 386.668ZM374 388.66C373.392 388.66 372.808 388.716 372.248 388.828C371.688 388.956 371.2 389.148 370.784 389.404C370.368 389.66 370.032 389.996 369.776 390.412C369.52 390.828 369.392 391.332 369.392 391.924C369.376 394.1 370.912 395.188 374 395.188C374.624 395.188 375.216 395.124 375.776 394.996C376.336 394.884 376.824 394.7 377.24 394.444C377.656 394.188 377.984 393.852 378.224 393.436C378.48 393.02 378.608 392.516 378.608 391.924C378.624 389.748 377.088 388.66 374 388.66ZM384.8 406.606L384.8 408.526L378.824 408.526L378.824 408.622C379.288 408.99 379.648 409.454 379.904 410.014C380.16 410.59 380.288 411.214 380.288 411.886C380.288 413.438 379.792 414.598 378.8 415.366C377.808 416.15 376.272 416.542 374.192 416.542C372.096 416.542 370.504 416.03 369.416 415.006C368.328 413.982 367.784 412.542 367.784 410.686C367.784 409.79 367.88 408.974 368.072 408.238C368.264 407.518 368.472 406.974 368.696 406.606L384.8 406.606ZM378.608 411.55C378.608 410.75 378.384 410.102 377.936 409.606C377.488 409.11 376.856 408.75 376.04 408.526L369.992 408.526C369.816 408.83 369.68 409.198 369.584 409.63C369.504 410.062 369.464 410.51 369.464 410.974C369.464 412.062 369.848 412.926 370.616 413.566C371.384 414.222 372.584 414.55 374.216 414.55C374.84 414.55 375.424 414.494 375.968 414.382C376.512 414.27 376.976 414.094 377.36 413.854C377.744 413.614 378.048 413.302 378.272 412.918C378.496 412.55 378.608 412.094 378.608 411.55ZM368.96 428.327C368.576 427.847 368.272 427.239 368.048 426.503C367.824 425.783 367.712 425.015 367.712 424.199C367.712 423.287 367.856 422.495 368.144 421.823C368.448 421.151 368.872 420.599 369.416 420.167C369.976 419.735 370.64 419.415 371.408 419.207C372.176 418.999 373.04 418.895 374 418.895C376.048 418.895 377.608 419.351 378.68 420.263C379.752 421.175 380.288 422.479 380.288 424.175C380.288 424.719 380.224 425.263 380.096 425.807C379.984 426.351 379.76 426.839 379.424 427.271C379.088 427.703 378.608 428.055 377.984 428.327C377.376 428.599 376.568 428.735 375.56 428.735C375.032 428.735 374.448 428.687 373.808 428.591L373.808 420.887C373.104 420.887 372.48 420.959 371.936 421.103C371.392 421.247 370.928 421.471 370.544 421.775C370.176 422.079 369.888 422.471 369.68 422.951C369.488 423.447 369.392 424.047 369.392 424.751C369.392 425.295 369.488 425.839 369.68 426.383C369.872 426.927 370.096 427.335 370.352 427.607L368.96 428.327ZM378.608 424.199C378.608 423.255 378.36 422.495 377.864 421.919C377.368 421.359 376.52 421.023 375.32 420.911L375.32 426.863C376.536 426.863 377.384 426.631 377.864 426.167C378.36 425.703 378.608 425.047 378.608 424.199Z" fill="#667085"/>
<path d="M340.264 148.128C340.744 148.128 341.12 147.984 341.392 147.696C341.664 147.408 341.888 147.048 342.064 146.616C342.256 146.2 342.432 145.736 342.592 145.224C342.768 144.728 342.984 144.264 343.24 143.832C343.512 143.416 343.856 143.064 344.272 142.776C344.688 142.488 345.248 142.344 345.952 142.344C347.104 142.344 347.944 142.672 348.472 143.328C349.016 143.984 349.288 144.896 349.288 146.064C349.288 146.928 349.208 147.648 349.048 148.224C348.904 148.816 348.728 149.328 348.52 149.76L346.936 149.304C347.112 148.936 347.264 148.488 347.392 147.96C347.536 147.448 347.608 146.896 347.608 146.304C347.608 145.6 347.488 145.08 347.248 144.744C347.008 144.424 346.592 144.264 346 144.264C345.584 144.264 345.256 144.408 345.016 144.696C344.792 144.984 344.584 145.336 344.392 145.752C344.216 146.184 344.04 146.648 343.864 147.144C343.688 147.656 343.456 148.12 343.168 148.536C342.88 148.968 342.512 149.328 342.064 149.616C341.632 149.904 341.056 150.048 340.336 150.048C339.824 150.048 339.344 149.96 338.896 149.784C338.448 149.624 338.064 149.368 337.744 149.016C337.424 148.664 337.176 148.224 337 147.696C336.808 147.184 336.712 146.576 336.712 145.872C336.712 144.96 336.8 144.184 336.976 143.544C337.152 142.904 337.36 142.368 337.6 141.936L339.232 142.512C339.024 142.88 338.832 143.36 338.656 143.952C338.48 144.544 338.392 145.144 338.392 145.752C338.392 146.44 338.528 147.008 338.8 147.456C339.072 147.904 339.56 148.128 340.264 148.128ZM343 152.278C345.032 152.278 346.584 152.726 347.656 153.622C348.744 154.534 349.288 155.838 349.288 157.534C349.288 158.43 349.136 159.206 348.832 159.862C348.544 160.534 348.12 161.086 347.56 161.518C347.016 161.95 346.352 162.27 345.568 162.478C344.8 162.686 343.944 162.79 343 162.79C340.968 162.79 339.408 162.334 338.32 161.422C337.248 160.526 336.712 159.23 336.712 157.534C336.712 156.638 336.856 155.854 337.144 155.182C337.448 154.526 337.872 153.982 338.416 153.55C338.976 153.118 339.64 152.798 340.408 152.59C341.192 152.382 342.056 152.278 343 152.278ZM343 154.27C342.392 154.27 341.808 154.326 341.248 154.438C340.688 154.566 340.2 154.758 339.784 155.014C339.368 155.27 339.032 155.606 338.776 156.022C338.52 156.438 338.392 156.942 338.392 157.534C338.376 159.71 339.912 160.798 343 160.798C343.624 160.798 344.216 160.734 344.776 160.606C345.336 160.494 345.824 160.31 346.24 160.054C346.656 159.798 346.984 159.462 347.224 159.046C347.48 158.63 347.608 158.126 347.608 157.534C347.624 155.358 346.088 154.27 343 154.27ZM340.264 177.495C340.744 177.495 341.12 177.351 341.392 177.063C341.664 176.775 341.888 176.415 342.064 175.983C342.256 175.567 342.432 175.103 342.592 174.591C342.768 174.095 342.984 173.631 343.24 173.199C343.512 172.783 343.856 172.431 344.272 172.143C344.688 171.855 345.248 171.711 345.952 171.711C347.104 171.711 347.944 172.039 348.472 172.695C349.016 173.351 349.288 174.263 349.288 175.431C349.288 176.295 349.208 177.015 349.048 177.591C348.904 178.183 348.728 178.695 348.52 179.127L346.936 178.671C347.112 178.303 347.264 177.855 347.392 177.327C347.536 176.815 347.608 176.263 347.608 175.671C347.608 174.967 347.488 174.447 347.248 174.111C347.008 173.791 346.592 173.631 346 173.631C345.584 173.631 345.256 173.775 345.016 174.063C344.792 174.351 344.584 174.703 344.392 175.119C344.216 175.551 344.04 176.015 343.864 176.511C343.688 177.023 343.456 177.487 343.168 177.903C342.88 178.335 342.512 178.695 342.064 178.983C341.632 179.271 341.056 179.415 340.336 179.415C339.824 179.415 339.344 179.327 338.896 179.151C338.448 178.991 338.064 178.735 337.744 178.383C337.424 178.031 337.176 177.591 337 177.063C336.808 176.551 336.712 175.943 336.712 175.239C336.712 174.327 336.8 173.551 336.976 172.911C337.152 172.271 337.36 171.735 337.6 171.303L339.232 171.879C339.024 172.247 338.832 172.727 338.656 173.319C338.48 173.911 338.392 174.511 338.392 175.119C338.392 175.807 338.528 176.375 338.8 176.823C339.072 177.271 339.56 177.495 340.264 177.495ZM349 180.733L349 182.605L351.376 182.605L351.928 184.525L349 184.525L349 187.789L347.32 187.789L347.32 184.525L340.672 184.525C339.84 184.525 339.248 184.629 338.896 184.837C338.56 185.045 338.392 185.397 338.392 185.893C338.392 186.309 338.432 186.661 338.512 186.949C338.608 187.237 338.728 187.557 338.872 187.909L337.408 188.341C337.2 187.909 337.032 187.437 336.904 186.925C336.776 186.413 336.712 185.861 336.712 185.269C336.712 184.293 336.984 183.605 337.528 183.205C338.088 182.805 339.016 182.605 340.312 182.605L347.32 182.605L347.32 180.733L349 180.733ZM347.152 196.114C347.312 195.634 347.392 195.178 347.392 194.746C347.392 194.058 347.2 193.514 346.816 193.114C346.448 192.714 345.976 192.466 345.4 192.37L337 192.37L337 190.45L349 190.45L349 191.794L347.536 192.154L347.536 192.25C348.08 192.554 348.496 192.914 348.784 193.33C349.088 193.762 349.24 194.306 349.24 194.962C349.24 195.426 349.16 195.946 349 196.522L347.152 196.114ZM337.96 207.366C337.576 206.886 337.272 206.278 337.048 205.542C336.824 204.822 336.712 204.054 336.712 203.238C336.712 202.326 336.856 201.534 337.144 200.862C337.448 200.19 337.872 199.638 338.416 199.206C338.976 198.774 339.64 198.454 340.408 198.246C341.176 198.038 342.04 197.934 343 197.934C345.048 197.934 346.608 198.39 347.68 199.302C348.752 200.214 349.288 201.518 349.288 203.214C349.288 203.758 349.224 204.302 349.096 204.846C348.984 205.39 348.76 205.878 348.424 206.31C348.088 206.742 347.608 207.094 346.984 207.366C346.376 207.638 345.568 207.774 344.56 207.774C344.032 207.774 343.448 207.726 342.808 207.63L342.808 199.926C342.104 199.926 341.48 199.998 340.936 200.142C340.392 200.286 339.928 200.51 339.544 200.814C339.176 201.118 338.888 201.51 338.68 201.99C338.488 202.486 338.392 203.086 338.392 203.79C338.392 204.334 338.488 204.878 338.68 205.422C338.872 205.966 339.096 206.374 339.352 206.646L337.96 207.366ZM347.608 203.238C347.608 202.294 347.36 201.534 346.864 200.958C346.368 200.398 345.52 200.062 344.32 199.95L344.32 205.902C345.536 205.902 346.384 205.67 346.864 205.206C347.36 204.742 347.608 204.086 347.608 203.238ZM340.264 216.073C340.744 216.073 341.12 215.929 341.392 215.641C341.664 215.353 341.888 214.993 342.064 214.561C342.256 214.145 342.432 213.681 342.592 213.169C342.768 212.673 342.984 212.209 343.24 211.777C343.512 211.361 343.856 211.009 344.272 210.721C344.688 210.433 345.248 210.289 345.952 210.289C347.104 210.289 347.944 210.617 348.472 211.273C349.016 211.929 349.288 212.841 349.288 214.009C349.288 214.873 349.208 215.593 349.048 216.169C348.904 216.761 348.728 217.273 348.52 217.705L346.936 217.249C347.112 216.881 347.264 216.433 347.392 215.905C347.536 215.393 347.608 214.841 347.608 214.249C347.608 213.545 347.488 213.025 347.248 212.689C347.008 212.369 346.592 212.209 346 212.209C345.584 212.209 345.256 212.353 345.016 212.641C344.792 212.929 344.584 213.281 344.392 213.697C344.216 214.129 344.04 214.593 343.864 215.089C343.688 215.601 343.456 216.065 343.168 216.481C342.88 216.913 342.512 217.273 342.064 217.561C341.632 217.849 341.056 217.993 340.336 217.993C339.824 217.993 339.344 217.905 338.896 217.729C338.448 217.569 338.064 217.313 337.744 216.961C337.424 216.609 337.176 216.169 337 215.641C336.808 215.129 336.712 214.521 336.712 213.817C336.712 212.905 336.8 212.129 336.976 211.489C337.152 210.849 337.36 210.313 337.6 209.881L339.232 210.457C339.024 210.825 338.832 211.305 338.656 211.897C338.48 212.489 338.392 213.089 338.392 213.697C338.392 214.385 338.528 214.953 338.8 215.401C339.072 215.849 339.56 216.073 340.264 216.073ZM340.264 226.175C340.744 226.175 341.12 226.031 341.392 225.743C341.664 225.455 341.888 225.095 342.064 224.663C342.256 224.247 342.432 223.783 342.592 223.271C342.768 222.775 342.984 222.311 343.24 221.879C343.512 221.463 343.856 221.111 344.272 220.823C344.688 220.535 345.248 220.391 345.952 220.391C347.104 220.391 347.944 220.719 348.472 221.375C349.016 222.031 349.288 222.943 349.288 224.111C349.288 224.975 349.208 225.695 349.048 226.271C348.904 226.863 348.728 227.375 348.52 227.807L346.936 227.351C347.112 226.983 347.264 226.535 347.392 226.007C347.536 225.495 347.608 224.943 347.608 224.351C347.608 223.647 347.488 223.127 347.248 222.791C347.008 222.471 346.592 222.311 346 222.311C345.584 222.311 345.256 222.455 345.016 222.743C344.792 223.031 344.584 223.383 344.392 223.799C344.216 224.231 344.04 224.695 343.864 225.191C343.688 225.703 343.456 226.167 343.168 226.583C342.88 227.015 342.512 227.375 342.064 227.663C341.632 227.951 341.056 228.095 340.336 228.095C339.824 228.095 339.344 228.007 338.896 227.831C338.448 227.671 338.064 227.415 337.744 227.063C337.424 226.711 337.176 226.271 337 225.743C336.808 225.231 336.712 224.623 336.712 223.919C336.712 223.007 336.8 222.231 336.976 221.591C337.152 220.951 337.36 220.415 337.6 219.983L339.232 220.559C339.024 220.927 338.832 221.407 338.656 221.999C338.48 222.591 338.392 223.191 338.392 223.799C338.392 224.487 338.528 225.055 338.8 225.503C339.072 225.951 339.56 226.175 340.264 226.175ZM337.96 239.756C337.576 239.276 337.272 238.668 337.048 237.932C336.824 237.212 336.712 236.444 336.712 235.628C336.712 234.716 336.856 233.924 337.144 233.252C337.448 232.58 337.872 232.028 338.416 231.596C338.976 231.164 339.64 230.844 340.408 230.636C341.176 230.428 342.04 230.324 343 230.324C345.048 230.324 346.608 230.78 347.68 231.692C348.752 232.604 349.288 233.908 349.288 235.604C349.288 236.148 349.224 236.692 349.096 237.236C348.984 237.78 348.76 238.268 348.424 238.7C348.088 239.132 347.608 239.484 346.984 239.756C346.376 240.028 345.568 240.164 344.56 240.164C344.032 240.164 343.448 240.116 342.808 240.02L342.808 232.316C342.104 232.316 341.48 232.388 340.936 232.532C340.392 232.676 339.928 232.9 339.544 233.204C339.176 233.508 338.888 233.9 338.68 234.38C338.488 234.876 338.392 235.476 338.392 236.18C338.392 236.724 338.488 237.268 338.68 237.812C338.872 238.356 339.096 238.764 339.352 239.036L337.96 239.756ZM347.608 235.628C347.608 234.684 347.36 233.924 346.864 233.348C346.368 232.788 345.52 232.452 344.32 232.34L344.32 238.292C345.536 238.292 346.384 238.06 346.864 237.596C347.36 237.132 347.608 236.476 347.608 235.628ZM341.128 252.4C340.312 252.4 339.568 252.408 338.896 252.424C338.24 252.44 337.592 252.512 336.952 252.64L336.952 251.344L338.656 250.864L338.656 250.768C338.096 250.448 337.632 249.984 337.264 249.376C336.896 248.768 336.712 248.056 336.712 247.24C336.712 245.64 337.216 244.448 338.224 243.664C339.232 242.896 340.808 242.512 342.952 242.512C345 242.512 346.552 242.992 347.608 243.952C348.68 244.928 349.216 246.264 349.216 247.96C349.216 248.552 349.184 249.016 349.12 249.352C349.056 249.704 348.952 250.08 348.808 250.48L353.8 250.48L353.8 252.4L341.128 252.4ZM338.392 247.552C338.392 248.368 338.6 249.016 339.016 249.496C339.448 249.976 340.096 250.304 340.96 250.48L346.912 250.48C347.136 250.192 347.296 249.864 347.392 249.496C347.488 249.128 347.536 248.64 347.536 248.032C347.536 246.928 347.168 246.064 346.432 245.44C345.712 244.816 344.552 244.504 342.952 244.504C342.296 244.504 341.688 244.552 341.128 244.648C340.568 244.76 340.088 244.936 339.688 245.176C339.288 245.416 338.968 245.728 338.728 246.112C338.504 246.512 338.392 246.992 338.392 247.552ZM341.248 257.85C341.328 257.834 341.416 257.826 341.512 257.826C341.608 257.826 341.696 257.826 341.776 257.826C342.448 257.826 343.04 257.922 343.552 258.114C344.064 258.322 344.528 258.57 344.944 258.858C345.376 259.162 345.776 259.482 346.144 259.818C346.512 260.17 346.88 260.49 347.248 260.778C347.632 261.082 348.032 261.33 348.448 261.522C348.88 261.73 349.368 261.834 349.912 261.834C350.648 261.834 351.248 261.618 351.712 261.186C352.176 260.77 352.408 260.066 352.408 259.074C352.408 258.498 352.304 257.914 352.096 257.322C351.904 256.73 351.672 256.218 351.4 255.786L352.888 255.138C353.256 255.746 353.544 256.386 353.752 257.058C353.976 257.73 354.088 258.562 354.088 259.554C354.088 260.258 353.984 260.874 353.776 261.402C353.584 261.946 353.312 262.394 352.96 262.746C352.608 263.114 352.192 263.386 351.712 263.562C351.232 263.738 350.72 263.826 350.176 263.826C349.456 263.826 348.824 263.714 348.28 263.49C347.752 263.282 347.264 263.01 346.816 262.674C346.384 262.354 345.976 262.002 345.592 261.618C345.208 261.25 344.8 260.898 344.368 260.562C343.952 260.242 343.496 259.97 343 259.746C342.504 259.538 341.92 259.434 341.248 259.434L341.248 257.85ZM338.104 257.37C338.536 257.37 338.872 257.49 339.112 257.73C339.368 257.986 339.496 258.322 339.496 258.738C339.496 259.17 339.368 259.514 339.112 259.77C338.872 260.026 338.536 260.154 338.104 260.154C337.688 260.154 337.352 260.026 337.096 259.77C336.84 259.514 336.712 259.17 336.712 258.738C336.712 258.322 336.84 257.986 337.096 257.73C337.352 257.49 337.688 257.37 338.104 257.37Z" fill="#667085"/>
<path d="M0 641V842H201C201 724.173 91.9938 641 0 641Z" fill="#FEF6FB"/>
<path d="M0 699V842H143C143 758.173 65.4483 699 0 699Z" fill="#C7D7FE"/>
<path d="M1 199V-1.52588e-05H200C200 116.655 92.0784 199 1 199Z" fill="#C7D7FE"/>
<path d="M1 142V0H143C143 83.2413 65.9906 142 1 142Z" fill="#FEF6FB"/>
</svg>
